{
.appVersion = "3436";
.formatVersion = 3;
customParameters = (
{
name = panose;
value = (
0,
0,
0,
0,
0,
0,
0,
0,
0,
0
);
},
{
name = unicodeRanges;
value = (
0,
1,
2,
31
);
},
{
name = fsType;
value = (
);
},
{
name = glyphOrder;
value = (
uni000B,
NULL,
CR,
space,
uni000A,
controlCR,
exclam,
quotedbl,
numbersign,
percent,
quotesingle,
parenleft,
parenright,
asterisk,
plus,
comma,
hyphen,
period,
slash,
zero,
one,
two,
three,
four,
five,
six,
seven,
eight,
nine,
colon,
semicolon,
less,
equal,
greater,
question,
A,
B,
C,
D,
E,
F,
G,
H,
I,
J,
K,
L,
M,
N,
O,
P,
Q,
R,
S,
T,
U,
V,
W,
X,
Y,
Z,
underscore,
uni00A0,
uni00AD,
Oacute,
Aogonek,
Cacute,
Eogonek,
Lslash,
Nacute,
Sacute,
Zacute,
Zdot,
endash,
emdash,
quotedblbase,
ellipsis
);
}
);
date = "2025-03-14 10:53:12 +0000";
familyName = "Festiwal 1955";
fontMaster = (
{
customParameters = (
{
name = typoAscender;
value = 700;
},
{
name = typoDescender;
value = -215;
},
{
name = typoLineGap;
value = 0;
},
{
name = winAscent;
value = 896;
},
{
name = winDescent;
value = 202;
},
{
name = hheaAscender;
value = 700;
},
{
name = hheaDescender;
value = -215;
},
{
name = strikeoutPosition;
value = 258;
},
{
name = strikeoutSize;
value = 49;
},
{
name = underlinePosition;
value = 0;
},
{
name = underlineThickness;
value = 0;
},
{
name = "prep Table Assembly";
value = "SVTCA[0]	/* SetFreedomAndProjectionVectorToAxis */
MPPEM[ ]	/* MeasurePixelPerEm */
PUSHW[ ]	/* 1 value pushed */
200
GT[ ]	/* GreaterThan */
IF[ ]	/* If */
PUSHB[ ]	/* 2 values pushed */
1 1
INSTCTRL[ ]	/* SetInstrExecControl */
EIF[ ]	/* EndIf */
PUSHB[ ]	/* 1 value pushed */
1
PUSHW[ ]	/* 2 values pushed */
2048 2048
MUL[ ]	/* Multiply */
WCVTF[ ]	/* WriteCVTInFUnits */
PUSHB[ ]	/* 2 values pushed */
0 7
WS[ ]	/* WriteStore */
PUSHB[ ]	/* 3 values pushed */
0 1 0
LOOPCALL[ ]	/* LoopAndCallFunction */
PUSHB[ ]	/* 2 values pushed */
0 7
WS[ ]	/* WriteStore */
PUSHB[ ]	/* 4 values pushed */
12 4 1 10
LOOPCALL[ ]	/* LoopAndCallFunction */

glyphs = (
{
glyphname = uni000B;
layers = (
{
layerId = m01;
shapes = (
{
closed = 1;
nodes = (
(457,47,l),
(276,350,l),
(457,652,l)
);
},
{
closed = 1;
nodes = (
(79,21,l),
(264,329,l),
(449,21,l)
);
},
{
closed = 1;
nodes = (
(71,650,l),
(251,350,l),
(71,49,l)
);
},
{
closed = 1;
nodes = (
(263,371,l),
(78,680,l),
(449,680,l)
);
},
{
closed = 1;
nodes = (
(477,0,l),
(477,700,l),
(50,700,l),
(50,0,l)
);
}
);
userData = {
assembly = "NPUSHB[ ]	/* 49 values pushed */
10 8 7 2 1 5 0 1 1 76 0 2 4 1 1 0 2 1 103 0 0 3 3 0 87 0 0 0 3 95 0 3 0 3 79 9 9 15 14 13 12 9 11 9 11 20 5 6 23
CALL[ ]	/* CallFunction */";
};
width = 527;
}
);
note = uni000B;
},
{
glyphname = exclam;
kernLeft = exclam;
layers = (
{
layerId = m01;
shapes = (
{
closed = 1;
nodes = (
(87,161,l),
(135,161,l),
(206,696,l),
(108,696,l)
);
},
{
closed = 1;
nodes = (
(86,0,o),
(116,0,o),
(137,20,o),
(137,50,o),
(116,71,o),
(86,71,o),
(66,50,o),
(66,20,o)
);
}
);
userData = {
assembly = "NPUSHB[ ]	/* 39 values pushed */
0 0 1 2 1 0 2 128 4 1 1 1 14 77 0 2 2 3 97 0 3 3 15 3 78 0 0 10 9 6 5 0 3 0 3 17 5 7 23
CALL[ ]	/* CallFunction */";
};
width = 271;
}
);
note = exclam;
unicode = 33;
},
{
glyphname = quotedbl;
kernLeft = quotedbl;
layers = (
{
layerId = m01;
shapes = (
{
closed = 1;
nodes = (
(230,646,o),
(230,587,qs),
(230,577,o),
(226,555,qs),
(213,497,o),
(168,470,q),
(187,438,l),
(244,472,o),
(262,547,qs),
(267,570,o),
(267,587,qs),
(267,664,o),
(214,706,q),
(191,677,l)
);
},
{
closed = 1;
nodes = (
(113,646,o),
(113,587,qs),
(113,577,o),
(109,555,qs),
(96,497,o),
(51,470,q),
(70,438,l),
(127,472,o),
(145,547,qs),
(150,570,o),
(150,588,qs),
(150,663,o),
(98,706,q),
(74,677,l)
);
}
);
userData = {
assembly = "PUSHB[ ]	/* 6 values pushed */
20 14 6 0 2 50
CALL[ ]	/* CallFunction */";
};
width = 323;
}
);
note = quotedbl;
unicode = 34;
},
{
glyphname = numbersign;
layers = (
{
layerId = m01;
shapes = (
{
closed = 1;
nodes = (
(352,426,l),
(534,426,l),
(473,273,l),
(291,273,l)
);
},
{
closed = 1;
nodes = (
(593,463,l),
(687,699,l),
(642,699,l),
(549,463,l),
(367,463,l),
(461,699,l),
(416,699,l),
(323,463,l),
(84,463,l),
(84,426,l),
(308,426,l),
(247,273,l),
(59,273,l),
(59,236,l),
(232,236,l),
(138,0,l),
(183,0,l),
(276,236,l),
(458,236,l),
(364,0,l),
(409,0,l),
(502,236,l),
(766,236,l),
(766,273,l),
(517,273,l),
(578,426,l),
(791,426,l),
(791,463,l)
);
}
);
userData = {
assembly = "NPUSHB[ ]	/* 76 values pushed */
15 13 2 11 10 2 2 0 1 11 0 104 9 3 16 3 1 8 6 2 4 5 1 4 103 14 1 12 12 14 77 7 1 5 5 15 5 78 0 0 31 30 29 28 27 26 25 24 23 22 21 20 19 18 17 16 15 14 13 12 11 10 9 8 7 6 5 4 0 3 0 3 17 17 7 23
CALL[ ]	/* CallFunction */";
};
width = 849;
}
);
note = numbersign;
unicode = 35;
},
{
glyphname = percent;
layers = (
{
layerId = m01;
shapes = (
{
closed = 1;
nodes = (
(204,-8,l),
(498,710,l),
(454,710,l),
(160,-8,l)
);
},
{
closed = 1;
nodes = (
(452,261,o),
(510,261,o),
(551,220,o),
(551,162,o),
(510,121,o),
(452,121,o),
(411,162,o),
(411,220,o)
);
},
{
closed = 1;
nodes = (
(437,84,o),
(525,84,o),
(588,147,o),
(588,235,o),
(525,298,o),
(437,298,o),
(374,235,o),
(374,147,o)
);
},
{
closed = 1;
nodes = (
(252,546,o),
(252,490,o),
(210,448,o),
(154,448,o),
(112,490,o),
(112,546,o),
(153,587,o),
(211,587,o)
);
},
{
closed = 1;
nodes = (
(75,562,o),
(75,474,o),
(138,410,o),
(226,410,o),
(289,474,o),
(289,562,o),
(226,625,o),
(138,625,o)
);
}
);
userData = {
assembly = "MPPEM[ ]	/* MeasurePixelPerEm */
PUSHB[ ]	/* 1 value pushed */
50
LT[ ]	/* LessThan */
IF[ ]	/* If */
NPUSHB[ ]	/* 45 values pushed */
11 1 9 10 1 7 6 9 7 105 0 6 0 8 4 6 8 105 0 4 0 3 2 4 3 105 0 2 0 5 1 2 5 105 0 0 0 14 77 0 1 1 15 1 78
ELSE[ ]	/* Else */
NPUSHB[ ]	/* 45 values pushed */
0 0 9 0 133 11 1 9 10 1 7 6 9 7 105 0 6 0 8 4 6 8 105 0 4 0 3 2 4 3 105 0 2 0 5 1 2 5 105 0 1 1 15 1 78
EIF[ ]	/* EndIf */
NPUSHB[ ]	/* 24 values pushed */
28 28 20 20 28 35 28 35 32 31 20 27 20 27 21 19 19 19 18 17 16 12 7 29
CALL[ ]	/* CallFunction */";
};
width = 663;
}
);
note = percent;
unicode = 37;
},
{
glyphname = quotesingle;
kernLeft = quotedbl;
layers = (
{
layerId = m01;
shapes = (
{
closed = 1;
nodes = (
(114,641,o),
(114,582,qs),
(114,572,o),
(110,550,qs),
(97,492,o),
(52,465,q),
(71,433,l),
(128,467,o),
(146,542,qs),
(151,565,o),
(151,583,qs),
(151,658,o),
(99,701,q),
(75,672,l)
);
}
);
userData = {
assembly = "PUSHB[ ]	/* 4 values pushed */
6 0 1 50
CALL[ ]	/* CallFunction */";
};
width = 208;
}
);
note = quotesingle;
unicode = 39;
},
{
glyphname = parenleft;
kernLeft = parenleft;
layers = (
{
layerId = m01;
shapes = (
{
closed = 1;
nodes = (
(217,815,o),
(70,494,o),
(70,300,qs),
(70,153,o),
(156,-107,o),
(235,-198,q),
(266,-171,l),
(192,-86,o),
(111,160,o),
(111,300,qs),
(111,484,o),
(247,785,o),
(361,853,q),
(340,888,l)
);
}
);
userData = {
assembly = "PUSHB[ ]	/* 4 values pushed */
13 7 1 50
CALL[ ]	/* CallFunction */";
};
width = 269;
}
);
note = parenleft;
unicode = 40;
},
{
glyphname = parenright;
kernLeft = parenright;
layers = (
{
layerId = m01;
shapes = (
{
closed = 1;
nodes = (
(40,794,o),
(146,535,o),
(146,377,qs),
(146,329,o),
(142,289,qs),
(129,151,o),
(23,-87,o),
(-59,-165,q),
(-31,-195,l),
(56,-112,o),
(168,139,o),
(182,285,qs),
(186,325,o),
(186,375,qs),
(186,542,o),
(72,821,o),
(-29,896,q),
(-53,863,l)
);
}
);
userData = {
assembly = "PUSHB[ ]	/* 4 values pushed */
8 0 1 50
CALL[ ]	/* CallFunction */";
};
width = 257;
}
);
note = parenright;
unicode = 41;
},
{
glyphname = asterisk;
kernLeft = asterisk;
layers = (
{
layerId = m01;
shapes = (
{
closed = 1;
nodes = (
(223,692,l),
(195,708,l),
(156,640,l),
(117,708,l),
(89,692,l),
(128,624,l),
(50,624,l),
(50,592,l),
(129,592,l),
(89,524,l),
(117,508,l),
(156,576,l),
(195,508,l),
(223,524,l),
(184,592,l),
(262,592,l),
(262,624,l),
(184,624,l)
);
}
);
userData = {
assembly = "NPUSHB[ ]	/* 49 values pushed */
16 15 14 13 12 5 2 74 7 6 5 4 3 5 0 73 4 3 2 2 0 0 2 87 4 3 2 2 2 0 95 1 1 0 2 0 79 0 0 0 17 0 17 17 22 17 5 7 25
CALL[ ]	/* CallFunction */";
};
width = 313;
}
);
note = asterisk;
unicode = 42;
},
{
glyphname = plus;
layers = (
{
layerId = m01;
shapes = (
{
closed = 1;
nodes = (
(243,591,l),
(243,398,l),
(50,398,l),
(50,360,l),
(243,360,l),
(243,167,l),
(281,167,l),
(281,360,l),
(474,360,l),
(474,398,l),
(281,398,l),
(281,591,l)
);
}
);
userData = {
assembly = "NPUSHB[ ]	/* 38 values pushed */
0 5 0 5 133 0 2 1 2 134 4 1 0 1 1 0 87 4 1 0 0 1 95 3 1 1 0 1 79 17 17 17 17 17 16 6 7 28
CALL[ ]	/* CallFunction */";
};
width = 525;
}
);
note = plus;
unicode = 43;
},
{
glyphname = comma;
kernLeft = comma;
layers = (
{
layerId = m01;
shapes = (
{
closed = 1;
nodes = (
(87,120,o),
(87,61,qs),
(87,51,o),
(83,29,qs),
(70,-29,o),
(25,-56,q),
(44,-88,l),
(101,-54,o),
(119,21,qs),
(124,44,o),
(124,62,qs),
(124,137,o),
(72,180,q),
(48,151,l)
);
}
);
userData = {
assembly = "PUSHB[ ]	/* 4 values pushed */
6 0 1 50
CALL[ ]	/* CallFunction */";
};
width = 177;
}
);
note = comma;
unicode = 44;
},
{
glyphname = hyphen;
layers = (
{
layerId = m01;
shapes = (
{
closed = 1;
nodes = (
(36,397,l),
(36,360,l),
(213,360,l),
(213,397,l)
);
}
);
userData = {
assembly = "NPUSHB[ ]	/* 21 values pushed */
0 1 0 0 1 87 0 1 1 0 95 0 0 1 0 79 17 16 2 7 24
CALL[ ]	/* CallFunction */";
};
width = 249;
}
);
note = hyphen;
unicode = 45;
},
{
glyphname = period;
kernLeft = period;
layers = (
{
layerId = m01;
shapes = (
{
closed = 1;
nodes = (
(91,71,o),
(61,71,o),
(41,50,o),
(41,20,o),
(61,0,o),
(91,0,o),
(112,20,o),
(112,50,o)
);
}
);
userData = {
assembly = "NPUSHB[ ]	/* 16 values pushed */
0 1 1 0 97 0 0 0 15 0 78 19 17 2 7 24
CALL[ ]	/* CallFunction */";
};
width = 153;
}
);
note = period;
unicode = 46;
},
{
glyphname = slash;
kernLeft = slash;
layers = (
{
layerId = m01;
shapes = (
{
closed = 1;
nodes = (
(396,873,l),
(-31,-202,l),
(13,-202,l),
(441,873,l)
);
}
);
userData = {
assembly = "NPUSHB[ ]	/* 14 values pushed */
0 1 0 1 133 0 0 0 118 17 16 2 7 24
CALL[ ]	/* CallFunction */";
};
width = 420;
}
);
note = slash;
unicode = 47;
},
{
glyphname = zero;
kernLeft = zero;
kernRight = zero;
layers = (
{
layerId = m01;
shapes = (
{
closed = 1;
nodes = (
(477,204,o),
(356,22,o),
(297,22,qs),
(244,22,o),
(155,173,o),
(155,297,qs),
(155,332,o),
(157,351,qs),
(170,498,o),
(293,680,o),
(352,680,qs),
(404,680,o),
(492,530,o),
(492,406,qs),
(492,370,o),
(490,351,qs)
);
},
{
closed = 1;
nodes = (
(251,710,o),
(84,521,o),
(69,351,qs),
(67,332,o),
(67,296,qs),
(67,151,o),
(198,-8,o),
(293,-8,qs),
(397,-8,o),
(563,181,o),
(578,351,qs),
(580,370,o),
(580,406,qs),
(580,551,o),
(450,710,o),
(355,710,qs)
);
}
);
userData = {
assembly = "NPUSHB[ ]	/* 34 values pushed */
0 0 0 3 97 4 1 3 3 16 77 0 1 1 2 97 0 2 2 17 2 78 16 16 16 31 16 30 41 38 35 5 7 25
CALL[ ]	/* CallFunction */";
};
width = 648;
}
);
note = zero;
unicode = 48;
},
{
glyphname = one;
kernLeft = one;
kernRight = one;
layers = (
{
layerId = m01;
shapes = (
{
closed = 1;
nodes = (
(336,698,l),
(279,698,l),
(210,597,o),
(103,537,q),
(99,495,l),
(185,533,o),
(250,600,q),
(202,46,l),
(53,46,l),
(53,0,l),
(432,0,l),
(432,46,l),
(280,46,l)
);
}
);
userData = {
assembly = "NPUSHB[ ]	/* 37 values pushed */
7 5 2 1 2 1 76 0 2 2 14 77 4 3 2 1 1 0 95 0 0 0 15 0 78 0 0 0 12 0 12 22 17 17 5 7 25
CALL[ ]	/* CallFunction */";
};
width = 482;
}
);
note = one;
unicode = 49;
},
{
glyphname = two;
kernLeft = two;
kernRight = two;
layers = (
{
layerId = m01;
shapes = (
{
closed = 1;
nodes = (
(134,45,l),
(315,249,l),
(489,423,o),
(489,549,qs),
(489,626,o),
(370,711,o),
(302,711,qs),
(248,711,o),
(149,658,o),
(117,612,q),
(113,570,l),
(146,613,o),
(239,664,o),
(288,664,qs),
(298,664,ls),
(345,662,o),
(400,599,o),
(400,547,qs),
(400,483,o),
(315,319,o),
(229,231,qs),
(58,47,l),
(54,-1,l),
(490,-1,l),
(494,45,l)
);
}
);
userData = {
assembly = "NPUSHB[ ]	/* 34 values pushed */
13 1 3 1 1 76 0 1 1 2 97 0 2 2 16 77 0 3 3 0 95 0 0 0 15 0 78 21 37 55 16 4 7 26
CALL[ ]	/* CallFunction */";
};
width = 558;
}
);
note = two;
unicode = 50;
},
{
glyphname = three;
kernLeft = three;
kernRight = three;
layers = (
{
layerId = m01;
shapes = (
{
closed = 1;
nodes = (
(476,195,o),
(477,203,o),
(477,205,qs),
(477,264,o),
(383,364,o),
(325,385,q),
(381,403,o),
(466,488,o),
(471,542,qs),
(471,545,o),
(472,554,o),
(472,556,qs),
(472,623,o),
(362,709,o),
(285,709,qs),
(196,709,o),
(125,646,q),
(121,604,l),
(192,667,o),
(272,667,qs),
(281,667,ls),
(333,664,o),
(393,593,o),
(393,544,qs),
(393,483,o),
(299,390,o),
(213,390,qs),
(207,390,l),
(204,353,l),
(219,353,ls),
(302,353,o),
(387,269,o),
(387,208,qs),
(387,141,o),
(297,34,o),
(227,33,qs),
(136,33,o),
(57,96,q),
(53,54,l),
(127,-10,o),
(238,-10,qs),
(327,-10,o),
(462,91,o),
(476,193,qs)
);
}
);
userData = {
assembly = "NPUSHB[ ]	/* 54 values pushed */
31 25 2 3 4 37 1 2 3 40 5 2 1 2 3 76 0 3 0 2 1 3 2 105 0 4 4 5 97 0 5 5 16 77 0 1 1 0 97 0 0 0 17 0 78 35 52 33 36 35 33 6 7 28
CALL[ ]	/* CallFunction */";
};
width = 545;
}
);
note = three;
unicode = 51;
},
{
glyphname = four;
kernLeft = four;
kernRight = four;
layers = (
{
layerId = m01;
shapes = (
{
closed = 1;
nodes = (
(352,612,l),
(324,289,l),
(105,289,l)
);
},
{
closed = 1;
nodes = (
(359,698,l),
(57,289,l),
(53,243,l),
(320,243,l),
(299,0,l),
(377,0,l),
(398,243,l),
(513,243,l),
(517,289,l),
(402,289,l),
(437,698,l)
);
}
);
userData = {
assembly = "NPUSHB[ ]	/* 47 values pushed */
1 1 0 5 1 76 1 6 2 0 4 1 2 3 0 2 103 0 5 5 14 77 0 3 3 15 3 78 0 0 13 12 10 9 8 7 6 5 4 3 0 2 0 2 7 7 22
CALL[ ]	/* CallFunction */";
};
width = 573;
}
);
note = four;
unicode = 52;
},
{
glyphname = five;
kernLeft = five;
kernRight = five;
layers = (
{
layerId = m01;
shapes = (
{
closed = 1;
nodes = (
(224,466,o),
(164,416,q),
(194,652,l),
(490,652,l),
(494,697,l),
(146,697,l),
(101,350,l),
(155,348,l),
(179,383,o),
(249,424,o),
(288,424,qs),
(291,424,ls),
(348,423,o),
(407,333,o),
(407,266,qs),
(407,179,o),
(317,35,o),
(246,35,qs),
(245,35,ls),
(138,37,o),
(65,108,q),
(61,65,l),
(133,-5,o),
(241,-7,qs),
(244,-7,ls),
(355,-7,o),
(494,161,o),
(494,265,qs),
(494,349,o),
(393,465,o),
(295,466,qs),
(292,466,ls)
);
}
);
userData = {
assembly = "NPUSHB[ ]	/* 69 values pushed */
29 1 4 3 10 1 2 4 2 76 0 4 3 2 3 4 2 128 7 1 0 0 3 4 0 3 105 0 6 6 5 95 0 5 5 14 77 0 2 2 1 97 0 1 1 17 1 78 1 0 28 27 26 25 24 23 21 18 14 11 8 5 0 31 1 30 8 7 22
CALL[ ]	/* CallFunction */";
};
width = 561;
}
);
note = five;
unicode = 53;
},
{
glyphname = six;
kernLeft = zero;
kernRight = six;
layers = (
{
layerId = m01;
shapes = (
{
closed = 1;
nodes = (
(400,124,o),
(313,32,o),
(262,32,qs),
(250,32,o),
(236,35,qs),
(192,46,o),
(140,133,o),
(140,192,qs),
(140,226,o),
(151,267,qs),
(172,339,o),
(269,432,o),
(323,432,qs),
(335,432,o),
(349,429,qs),
(390,419,o),
(434,341,o),
(434,285,qs),
(434,240,o),
(421,197,qs)
);
},
{
closed = 1;
nodes = (
(345,468,o),
(326,468,qs),
(227,468,o),
(167,411,q),
(175,522,o),
(281,665,o),
(358,665,qs),
(426,665,o),
(497,606,q),
(503,650,l),
(488,666,o),
(387,709,o),
(332,709,qs),
(290,709,o),
(215,678,o),
(142,605,o),
(86,464,o),
(73,365,qs),
(68,325,o),
(68,282,qs),
(68,246,o),
(75,180,o),
(96,104,o),
(131,46,o),
(192,0,o),
(232,-7,qs),
(248,-10,o),
(265,-10,qs),
(347,-10,o),
(486,115,o),
(506,205,qs),
(514,238,o),
(514,276,qs),
(514,351,o),
(436,452,o),
(363,465,qs)
);
}
);
userData = {
assembly = "NPUSHB[ ]	/* 48 values pushed */
46 1 5 4 51 1 1 0 2 76 0 5 0 0 1 5 0 105 0 4 4 3 97 0 3 3 16 77 0 1 1 2 97 0 2 2 17 2 78 35 36 45 41 40 37 6 7 28
CALL[ ]	/* CallFunction */";
};
width = 582;
}
);
note = six;
unicode = 54;
},
{
glyphname = seven;
kernLeft = seven;
kernRight = seven;
layers = (
{
layerId = m01;
shapes = (
{
closed = 1;
nodes = (
(87,698,l),
(84,653,l),
(363,653,l),
(244,397,l),
(81,397,l),
(81,360,l),
(227,360,l),
(60,0,l),
(144,0,l),
(314,360,l),
(460,360,l),
(460,397,l),
(331,397,l),
(457,664,l),
(460,698,l)
);
}
);
userData = {
assembly = "NPUSHB[ ]	/* 36 values pushed */
4 1 0 3 1 1 2 0 1 103 0 5 5 6 95 0 6 6 14 77 0 2 2 15 2 78 17 17 17 17 17 17 17 7 7 29
CALL[ ]	/* CallFunction */";
};
width = 520;
}
);
note = seven;
unicode = 55;
},
{
glyphname = eight;
kernLeft = eight;
kernRight = three;
layers = (
{
layerId = m01;
shapes = (
{
closed = 1;
nodes = (
(432,122,o),
(337,33,o),
(278,33,qs),
(267,33,ls),
(213,37,o),
(142,125,o),
(142,186,qs),
(142,195,o),
(144,215,qs),
(154,281,o),
(249,370,o),
(308,370,qs),
(319,370,ls),
(373,366,o),
(444,278,o),
(444,217,qs),
(444,208,o),
(442,188,qs)
);
},
{
closed = 1;
nodes = (
(219,610,o),
(291,683,o),
(335,683,qs),
(344,683,ls),
(385,679,o),
(437,608,o),
(437,558,qs),
(437,551,o),
(435,533,qs),
(428,478,o),
(356,405,o),
(312,405,qs),
(303,405,ls),
(262,409,o),
(210,480,o),
(210,530,qs),
(210,537,o),
(212,555,qs)
);
},
{
closed = 1;
nodes = (
(454,411,o),
(511,490,o),
(513,538,qs),
(513,546,ls),
(513,615,o),
(408,711,o),
(332,711,qs),
(253,711,o),
(138,609,o),
(134,538,qs),
(134,530,ls),
(134,443,o),
(212,394,q),
(149,370,o),
(67,265,o),
(63,201,qs),
(63,191,ls),
(63,108,o),
(190,-8,o),
(282,-8,qs),
(377,-8,o),
(519,114,o),
(523,201,qs),
(523,211,ls),
(523,268,o),
(461,362,o),
(408,388,q)
);
}
);
userData = {
assembly = "NPUSHB[ ]	/* 45 values pushed */
62 49 2 0 2 1 76 0 2 0 0 1 2 0 105 0 3 3 5 97 0 5 5 16 77 0 1 1 4 97 0 4 4 17 4 78 43 40 39 39 39 36 6 7 28
CALL[ ]	/* CallFunction */";
};
width = 592;
}
);
note = eight;
unicode = 56;
},
{
glyphname = nine;
kernLeft = nine;
kernRight = zero;
layers = (
{
layerId = m01;
shapes = (
{
closed = 1;
nodes = (
(181,573,o),
(268,665,o),
(319,665,qs),
(331,665,o),
(345,662,qs),
(389,651,o),
(441,564,o),
(441,504,qs),
(441,470,o),
(430,429,qs),
(409,357,o),
(313,265,o),
(260,265,qs),
(246,265,o),
(233,268,qs),
(191,278,o),
(147,357,o),
(147,413,qs),
(147,457,o),
(160,500,qs)
);
},
{
closed = 1;
nodes = (
(236,229,o),
(256,229,qs),
(357,229,o),
(414,285,q),
(406,174,o),
(301,32,o),
(224,32,qs),
(156,32,o),
(84,91,q),
(78,47,l),
(93,31,o),
(194,-12,o),
(249,-12,qs),
(291,-12,o),
(366,19,o),
(439,92,o),
(495,233,o),
(508,332,qs),
(513,372,o),
(513,417,qs),
(513,463,o),
(500,546,o),
(468,635,o),
(399,695,o),
(350,704,qs),
(334,707,o),
(317,707,qs),
(234,707,o),
(95,583,o),
(75,492,qs),
(67,459,o),
(67,421,qs),
(67,346,o),
(145,245,o),
(218,232,qs)
);
}
);
userData = {
assembly = "NPUSHB[ ]	/* 48 values pushed */
50 1 0 1 45 1 4 5 2 76 0 0 0 5 4 0 5 105 0 1 1 2 97 0 2 2 14 77 0 4 4 3 97 0 3 3 17 3 78 35 36 44 41 40 37 6 7 28
CALL[ ]	/* CallFunction */";
};
width = 582;
}
);
note = nine;
unicode = 57;
},
{
glyphname = colon;
kernLeft = colon;
layers = (
{
layerId = m01;
shapes = (
{
closed = 1;
nodes = (
(104,430,o),
(74,430,o),
(53,409,o),
(53,379,o),
(74,359,o),
(104,359,o),
(124,379,o),
(124,409,o)
);
},
{
closed = 1;
nodes = (
(99,70,o),
(69,70,o),
(49,50,o),
(49,20,o),
(69,-1,o),
(99,-1,o),
(120,20,o),
(120,50,o)
);
}
);
userData = {
assembly = "NPUSHB[ ]	/* 26 values pushed */
0 1 0 0 3 1 0 105 0 3 3 2 97 0 2 2 15 2 78 19 19 19 17 4 7 26
CALL[ ]	/* CallFunction */";
};
width = 174;
}
);
note = colon;
unicode = 58;
},
{
glyphname = semicolon;
kernLeft = semicolon;
layers = (
{
layerId = m01;
shapes = (
{
closed = 1;
nodes = (
(93,121,o),
(93,62,qs),
(93,52,o),
(89,30,qs),
(76,-28,o),
(31,-55,q),
(50,-87,l),
(107,-53,o),
(125,22,qs),
(130,45,o),
(130,63,qs),
(130,138,o),
(78,181,q),
(54,152,l)
);
},
{
closed = 1;
nodes = (
(106,432,o),
(76,432,o),
(56,411,o),
(56,381,o),
(76,361,o),
(106,361,o),
(127,381,o),
(127,411,o)
);
}
);
userData = {
assembly = "NPUSHB[ ]	/* 27 values pushed */
13 7 6 3 0 73 0 1 0 0 1 89 0 1 1 0 97 0 0 1 0 81 19 31 2 7 24
CALL[ ]	/* CallFunction */";
};
width = 187;
}
);
note = semicolon;
unicode = 59;
},
{
glyphname = less;
layers = (
{
layerId = m01;
shapes = (
{
closed = 1;
nodes = (
(333,175,l),
(333,224,l),
(91,379,l),
(333,534,l),
(333,583,l),
(53,404,l),
(53,355,l)
);
}
);
userData = {
assembly = "PUSHB[ ]	/* 4 values pushed */
5 1 1 50
CALL[ ]	/* CallFunction */";
};
width = 390;
}
);
note = less;
unicode = 60;
},
{
glyphname = equal;
layers = (
{
layerId = m01;
shapes = (
{
closed = 1;
nodes = (
(43,449,l),
(43,411,l),
(467,411,l),
(467,449,l)
);
},
{
closed = 1;
nodes = (
(43,349,l),
(43,311,l),
(467,311,l),
(467,349,l)
);
}
);
userData = {
assembly = "NPUSHB[ ]	/* 31 values pushed */
0 1 0 0 3 1 0 103 0 3 2 2 3 87 0 3 3 2 95 0 2 3 2 79 17 17 17 16 4 7 26
CALL[ ]	/* CallFunction */";
};
width = 511;
}
);
note = equal;
unicode = 61;
},
{
glyphname = greater;
layers = (
{
layerId = m01;
shapes = (
{
closed = 1;
nodes = (
(56,582,l),
(56,533,l),
(298,378,l),
(56,223,l),
(56,174,l),
(336,354,l),
(336,403,l)
);
}
);
userData = {
assembly = "PUSHB[ ]	/* 4 values pushed */
5 1 1 50
CALL[ ]	/* CallFunction */";
};
width = 389;
}
);
note = greater;
unicode = 62;
},
{
glyphname = question;
kernLeft = question;
layers = (
{
layerId = m01;
shapes = (
{
closed = 1;
nodes = (
(125,0,o),
(155,0,o),
(175,20,o),
(175,50,o),
(155,71,o),
(125,71,o),
(104,50,o),
(104,20,o)
);
},
{
closed = 1;
nodes = (
(133,695,o),
(63,633,q),
(59,591,l),
(146,652,o),
(213,652,qs),
(267,652,o),
(331,580,o),
(331,530,qs),
(331,472,o),
(244,383,o),
(163,381,qs),
(144,381,l),
(120,161,l),
(169,161,l),
(190,349,l),
(216,350,o),
(265,357,o),
(331,381,o),
(380,418,o),
(418,486,o),
(421,531,qs),
(421,541,ls),
(421,608,o),
(303,695,o),
(223,695,qs)
);
}
);
userData = {
assembly = "NPUSHB[ ]	/* 59 values pushed */
29 1 4 5 1 76 0 3 2 0 2 3 0 128 0 4 0 2 3 4 2 105 0 5 5 6 97 7 1 6 6 14 77 0 0 0 1 97 0 1 1 15 1 78 8 8 8 32 8 31 36 33 17 26 19 17 8 7 28
CALL[ ]	/* CallFunction */";
};
width = 480;
}
);
note = question;
unicode = 63;
},
{
glyphname = A;
kernLeft = A;
kernRight = A;
layers = (
{
layerId = m01;
shapes = (
{
closed = 1;
nodes = (
(353,398,l),
(230,398,l),
(307,581,l)
);
},
{
closed = 1;
nodes = (
(12,1,l),
(61,1,l),
(214,361,l),
(362,361,l),
(452,1,l),
(539,1,l),
(363,700,l),
(310,700,l)
);
}
);
userData = {
assembly = "NPUSHB[ ]	/* 40 values pushed */
2 1 0 4 1 76 0 0 0 2 1 0 2 104 5 1 4 4 14 77 3 1 1 1 15 1 78 3 3 3 10 3 10 17 17 19 16 6 7 26
CALL[ ]	/* CallFunction */";
};
width = 562;
}
);
note = A;
unicode = 65;
},
{
glyphname = B;
kernLeft = B;
kernRight = B;
layers = (
{
layerId = m01;
shapes = (
{
closed = 1;
nodes = (
(425,131,o),
(327,49,o),
(261,49,qs),
(219,49,o),
(136,50,q),
(162,362,l),
(276,362,ls),
(340,362,o),
(431,271,o),
(431,208,qs),
(431,206,o),
(430,196,o),
(430,194,qs)
);
},
{
closed = 1;
nodes = (
(363,658,o),
(427,599,o),
(427,552,qs),
(427,541,l),
(421,476,o),
(312,397,o),
(240,397,qs),
(165,397,l),
(189,657,l),
(315,658,ls)
);
},
{
closed = 1;
nodes = (
(500,431,o),
(509,541,qs),
(510,547,o),
(510,560,qs),
(510,631,o),
(409,700,o),
(320,700,qs),
(111,700,l),
(50,1,l),
(257,1,ls),
(373,1,o),
(519,97,o),
(528,194,qs),
(529,201,o),
(529,215,qs),
(529,284,o),
(451,376,o),
(383,392,q)
);
}
);
userData = {
assembly = "NPUSHB[ ]	/* 56 values pushed */
18 1 2 3 40 1 0 2 2 76 0 2 0 0 1 2 0 103 6 1 3 3 5 95 0 5 5 14 77 0 1 1 4 95 0 4 4 15 4 78 13 13 34 32 31 29 13 22 13 21 36 49 36 7 7 25
CALL[ ]	/* CallFunction */";
};
width = 579;
}
);
note = B;
unicode = 66;
},
{
glyphname = C;
kernLeft = C;
kernRight = C;
layers = (
{
layerId = m01;
shapes = (
{
closed = 1;
nodes = (
(239,713,o),
(62,524,o),
(48,367,qs),
(46,335,o),
(46,319,qs),
(46,177,o),
(189,-5,o),
(316,-5,qs),
(423,-5,o),
(514,61,q),
(518,107,l),
(427,41,o),
(320,41,qs),
(229,41,o),
(143,187,o),
(143,304,qs),
(143,336,o),
(146,367,qs),
(158,504,o),
(270,668,o),
(375,668,qs),
(442,668,o),
(549,597,o),
(572,536,q),
(577,590,l),
(551,647,o),
(444,713,o),
(379,713,qs)
);
}
);
userData = {
assembly = "NPUSHB[ ]	/* 42 values pushed */
24 16 3 3 1 0 1 76 0 0 0 3 97 4 1 3 3 16 77 0 1 1 2 97 0 2 2 17 2 78 0 0 0 27 0 26 35 38 37 5 7 25
CALL[ ]	/* CallFunction */";
};
width = 603;
}
);
note = C;
unicode = 67;
},
{
glyphname = D;
kernLeft = B;
kernRight = D;
layers = (
{
layerId = m01;
shapes = (
{
closed = 1;
nodes = (
(504,269,o),
(457,137,o),
(362,46,o),
(298,46,qs),
(247,46,o),
(136,47,q),
(189,655,l),
(353,656,ls),
(436,656,o),
(513,516,o),
(513,407,qs),
(513,370,o),
(511,351,qs)
);
},
{
closed = 1;
nodes = (
(306,701,o),
(111,699,q),
(50,1,l),
(294,0,ls),
(434,0,o),
(595,190,o),
(609,351,qs),
(612,380,o),
(612,407,qs),
(612,544,o),
(484,701,o),
(357,701,qs)
);
}
);
userData = {
assembly = "NPUSHB[ ]	/* 34 values pushed */
0 0 0 3 95 4 1 3 3 14 77 0 1 1 2 95 0 2 2 15 2 78 13 13 13 24 13 22 42 49 35 5 7 25
CALL[ ]	/* CallFunction */";
};
width = 659;
}
);
note = D;
unicode = 68;
},
{
glyphname = E;
kernLeft = B;
kernRight = E;
layers = (
{
layerId = m01;
shapes = (
{
closed = 1;
nodes = (
(112,698,l),
(51,0,l),
(490,0,l),
(494,46,l),
(137,46,l),
(164,360,l),
(427,360,l),
(427,397,l),
(168,397,l),
(190,653,l),
(523,653,l),
(527,698,l)
);
}
);
userData = {
assembly = "NPUSHB[ ]	/* 38 values pushed */
0 1 0 2 3 1 2 103 0 0 0 5 95 0 5 5 14 77 0 3 3 4 95 0 4 4 15 4 78 17 17 17 17 17 16 6 7 28
CALL[ ]	/* CallFunction */";
};
width = 547;
}
);
note = E;
unicode = 69;
},
{
glyphname = F;
kernLeft = B;
kernRight = F;
layers = (
{
layerId = m01;
shapes = (
{
closed = 1;
nodes = (
(111,700,l),
(50,1,l),
(132,1,l),
(163,361,l),
(426,361,l),
(426,398,l),
(167,398,l),
(189,654,l),
(522,654,l),
(526,700,l)
);
}
);
userData = {
assembly = "NPUSHB[ ]	/* 32 values pushed */
0 1 0 2 3 1 2 103 0 0 0 4 95 0 4 4 14 77 0 3 3 15 3 78 17 17 17 17 16 5 7 27
CALL[ ]	/* CallFunction */";
};
width = 537;
}
);
note = F;
unicode = 70;
},
{
glyphname = G;
kernLeft = G;
kernRight = G;
layers = (
{
layerId = m01;
shapes = (
{
closed = 1;
nodes = (
(521,361,l),
(507,106,l),
(440,41,o),
(351,41,qs),
(253,41,o),
(140,204,o),
(140,324,qs),
(140,339,o),
(142,367,qs),
(154,499,o),
(296,668,o),
(405,668,qs),
(469,668,o),
(578,613,o),
(613,564,q),
(617,610,l),
(582,659,o),
(473,713,o),
(409,713,qs),
(264,713,o),
(58,521,o),
(45,367,qs),
(43,341,o),
(43,328,qs),
(43,185,o),
(213,-5,o),
(346,-5,qs),
(436,-5,o),
(503,60,q),
(498,1,l),
(579,1,l),
(603,361,l),
(696,361,l),
(696,398,l),
(316,398,l),
(316,361,l)
);
}
);
userData = {
assembly = "NPUSHB[ ]	/* 11 values pushed */
20 1 0 5 33 6 2 6 1 2 76
MPPEM[ ]	/* MeasurePixelPerEm */
PUSHB[ ]	/* 1 value pushed */
10
LT[ ]	/* LessThan */
IF[ ]	/* If */
NPUSHB[ ]	/* 31 values pushed */
0 0 7 1 1 6 0 1 103 0 5 5 4 97 0 4 4 16 77 0 6 6 2 97 3 1 2 2 15 2 78
ELSE[ ]	/* Else */
MPPEM[ ]	/* MeasurePixelPerEm */
PUSHB[ ]	/* 1 value pushed */
11
LT[ ]	/* LessThan */
IF[ ]	/* If */
NPUSHB[ ]	/* 35 values pushed */
0 0 7 1 1 6 0 1 103 0 5 5 4 97 0 4 4 16 77 0 2 2 15 77 0 6 6 3 97 0 3 3 17 3 78
ELSE[ ]	/* Else */
MPPEM[ ]	/* MeasurePixelPerEm */
PUSHB[ ]	/* 1 value pushed */
39
LT[ ]	/* LessThan */
IF[ ]	/* If */
NPUSHB[ ]	/* 31 values pushed */
0 0 7 1 1 6 0 1 103 0 5 5 4 97 0 4 4 16 77 0 6 6 2 97 3 1 2 2 15 2 78
ELSE[ ]	/* Else */
NPUSHB[ ]	/* 35 values pushed */
0 0 7 1 1 6 0 1 103 0 5 5 4 97 0 4 4 16 77 0 2 2 15 77 0 6 6 3 97 0 3 3 17 3 78
EIF[ ]	/* EndIf */
EIF[ ]	/* EndIf */
EIF[ ]	/* EndIf */
NPUSHB[ ]	/* 11 values pushed */
18 38 37 38 34 17 17 16 8 7 30
CALL[ ]	/* CallFunction */";
};
width = 719;
}
);
note = G;
unicode = 71;
},
{
glyphname = H;
kernLeft = B;
kernRight = H;
layers = (
{
layerId = m01;
shapes = (
{
closed = 1;
nodes = (
(167,398,l),
(193,700,l),
(111,700,l),
(50,1,l),
(132,1,l),
(163,361,l),
(481,361,l),
(449,1,l),
(531,1,l),
(592,700,l),
(510,700,l),
(484,398,l)
);
}
);
userData = {
assembly = "NPUSHB[ ]	/* 30 values pushed */
0 5 0 2 1 5 2 104 4 1 0 0 14 77 3 1 1 1 15 1 78 17 17 17 17 17 16 6 7 28
CALL[ ]	/* CallFunction */";
};
width = 643;
}
);
note = H;
unicode = 72;
},
{
glyphname = I;
kernLeft = B;
kernRight = H;
layers = (
{
layerId = m01;
shapes = (
{
closed = 1;
nodes = (
(132,1,l),
(193,700,l),
(111,700,l),
(50,1,l)
);
}
);
userData = {
assembly = "NPUSHB[ ]	/* 16 values pushed */
0 0 0 14 77 0 1 1 15 1 78 17 16 2 7 24
CALL[ ]	/* CallFunction */";
};
width = 243;
}
);
note = I;
unicode = 73;
},
{
glyphname = J;
kernLeft = J;
kernRight = H;
layers = (
{
layerId = m01;
shapes = (
{
closed = 1;
nodes = (
(49,-42,o),
(3,-42,qs),
(-13,-42,o),
(-53,-24,o),
(-64,-13,q),
(-67,-43,l),
(-27,-88,o),
(38,-88,qs),
(80,-88,o),
(133,-8,o),
(138,47,qs),
(196,700,l),
(114,700,l),
(57,47,ls)
);
}
);
userData = {
assembly = "NPUSHB[ ]	/* 25 values pushed */
8 1 2 0 1 76 0 2 0 1 2 1 101 0 0 0 14 0 78 36 35 16 3 7 25
CALL[ ]	/* CallFunction */";
};
width = 246;
}
);
note = J;
unicode = 74;
},
{
glyphname = K;
kernLeft = B;
kernRight = K;
layers = (
{
layerId = m01;
shapes = (
{
closed = 1;
nodes = (
(168,409,l),
(193,700,l),
(111,700,l),
(50,1,l),
(132,1,l),
(161,340,l),
(453,1,l),
(566,1,l),
(224,398,l),
(604,700,l),
(533,700,l)
);
}
);
userData = {
assembly = "NPUSHB[ ]	/* 34 values pushed */
9 4 1 3 0 2 1 76 4 3 2 2 2 14 77 1 1 0 0 15 0 78 0 0 0 10 0 10 17 18 18 5 7 25
CALL[ ]	/* CallFunction */";
};
width = 610;
}
);
note = K;
unicode = 75;
},
{
glyphname = L;
kernLeft = B;
kernRight = L;
layers = (
{
layerId = m01;
shapes = (
{
closed = 1;
nodes = (
(111,700,l),
(50,1,l),
(401,1,l),
(405,47,l),
(136,47,l),
(193,700,l)
);
}
);
userData = {
assembly = "NPUSHB[ ]	/* 22 values pushed */
0 2 2 14 77 0 0 0 1 95 0 1 1 15 1 78 17 17 16 3 7 25
CALL[ ]	/* CallFunction */";
};
width = 413;
}
);
note = L;
unicode = 76;
},
{
glyphname = M;
kernLeft = M;
layers = (
{
layerId = m01;
shapes = (
{
closed = 1;
nodes = (
(206,700,l),
(140,700,l),
(39,1,l),
(85,1,l),
(164,549,l),
(334,1,l),
(385,1,l),
(654,555,l),
(638,1,l),
(719,1,l),
(741,700,l),
(675,700,l),
(389,110,l)
);
}
);
userData = {
assembly = "NPUSHB[ ]	/* 30 values pushed */
12 7 4 3 1 0 1 76 4 1 0 0 14 77 3 2 2 1 1 15 1 78 17 18 18 17 16 5 7 27
CALL[ ]	/* CallFunction */";
};
width = 806;
}
);
note = M;
unicode = 77;
},
{
glyphname = N;
kernLeft = B;
kernRight = H;
layers = (
{
layerId = m01;
shapes = (
{
closed = 1;
nodes = (
(166,700,l),
(111,700,l),
(50,1,l),
(96,1,l),
(146,573,l),
(511,1,l),
(566,1,l),
(627,700,l),
(581,700,l),
(531,128,l)
);
}
);
userData = {
assembly = "NPUSHB[ ]	/* 27 values pushed */
9 4 2 1 0 1 76 3 1 0 0 14 77 2 1 1 1 15 1 78 17 18 17 16 4 7 26
CALL[ ]	/* CallFunction */";
};
width = 677;
}
);
note = N;
unicode = 78;
},
{
glyphname = O;
kernLeft = G;
kernRight = O;
layers = (
{
layerId = m01;
shapes = (
{
closed = 1;
nodes = (
(653,220,o),
(491,32,o),
(376,32,qs),
(269,32,o),
(139,195,o),
(139,317,qs),
(139,330,o),
(141,354,qs),
(153,488,o),
(316,676,o),
(431,676,qs),
(537,676,o),
(667,513,o),
(667,391,qs),
(667,378,o),
(665,354,qs)
);
},
{
closed = 1;
nodes = (
(281,713,o),
(58,511,o),
(44,354,qs),
(42,328,o),
(42,317,qs),
(42,174,o),
(228,-5,o),
(372,-5,qs),
(526,-5,o),
(749,197,o),
(763,354,qs),
(765,380,o),
(765,391,qs),
(765,534,o),
(579,713,o),
(435,713,qs)
);
}
);
userData = {
assembly = "NPUSHB[ ]	/* 34 values pushed */
0 0 0 3 97 4 1 3 3 16 77 0 1 1 2 97 0 2 2 17 2 78 16 16 16 31 16 30 41 38 35 5 7 25
CALL[ ]	/* CallFunction */";
};
width = 807;
}
);
note = O;
unicode = 79;
},
{
glyphname = P;
kernLeft = B;
kernRight = P;
layers = (
{
layerId = m01;
shapes = (
{
closed = 1;
nodes = (
(453,446,o),
(358,355,o),
(296,355,qs),
(233,355,o),
(164,371,q),
(189,654,l),
(323,655,ls),
(382,655,o),
(459,581,o),
(459,523,qs),
(459,521,o),
(458,513,o),
(458,510,qs)
);
},
{
closed = 1;
nodes = (
(50,1,l),
(132,1,l),
(160,325,l),
(224,310,o),
(292,310,qs),
(403,310,o),
(546,413,o),
(555,510,qs),
(556,517,o),
(556,531,qs),
(556,616,o),
(432,700,o),
(327,700,qs),
(111,700,l)
);
}
);
userData = {
assembly = "NPUSHB[ ]	/* 50 values pushed */
7 1 1 0 23 1 3 1 2 76 0 1 0 3 4 1 3 105 0 0 0 2 95 5 1 2 2 14 77 0 4 4 15 4 78 14 13 25 24 22 20 13 26 14 26 34 36 6 7 24
CALL[ ]	/* CallFunction */";
};
width = 586;
}
);
note = P;
unicode = 80;
},
{
glyphname = Q;
kernLeft = G;
kernRight = Q;
layers = (
{
layerId = m01;
shapes = (
{
closed = 1;
nodes = (
(422,227,l),
(523,83,l),
(455,33,o),
(376,33,qs),
(269,33,o),
(139,197,o),
(139,319,qs),
(139,332,o),
(141,356,qs),
(153,490,o),
(316,678,o),
(431,678,qs),
(537,678,o),
(667,515,o),
(667,393,qs),
(667,380,o),
(665,356,qs),
(651,200,o),
(550,105,q),
(465,227,l)
);
},
{
closed = 1;
nodes = (
(765,382,o),
(765,393,qs),
(765,536,o),
(579,715,o),
(435,715,qs),
(282,715,o),
(58,513,o),
(44,356,qs),
(42,330,o),
(42,319,qs),
(42,176,o),
(228,-4,o),
(372,-4,qs),
(468,-4,o),
(553,40,q),
(642,-87,l),
(685,-87,l),
(584,57,l),
(659,105,o),
(755,261,o),
(763,356,qs)
);
}
);
userData = {
assembly = "NPUSHB[ ]	/* 51 values pushed */
25 22 17 3 1 2 1 76 0 2 0 1 0 2 1 128 0 3 4 3 134 0 0 0 5 97 0 5 5 16 77 0 1 1 4 98 0 4 4 17 4 78 38 34 20 18 38 38 6 7 28
CALL[ ]	/* CallFunction */";
};
width = 807;
}
);
note = Q;
unicode = 81;
},
{
glyphname = R;
kernLeft = B;
layers = (
{
layerId = m01;
shapes = (
{
closed = 1;
nodes = (
(454,445,o),
(359,354,o),
(297,354,qs),
(234,354,o),
(165,370,q),
(190,653,l),
(324,654,ls),
(383,654,o),
(460,580,o),
(460,522,qs),
(460,520,o),
(459,512,o),
(459,509,qs)
);
},
{
closed = 1;
nodes = (
(557,516,o),
(557,530,qs),
(557,615,o),
(434,698,o),
(328,698,qs),
(112,698,l),
(51,0,l),
(133,0,l),
(161,324,l),
(230,308,o),
(293,308,qs),
(296,308,l),
(298,308,l),
(446,0,l),
(540,0,l),
(386,319,l),
(460,338,o),
(549,434,o),
(556,509,qs)
);
}
);
userData = {
assembly = "NPUSHB[ ]	/* 45 values pushed */
7 1 1 0 22 15 2 3 1 2 76 0 1 0 3 2 1 3 105 0 0 0 5 95 0 5 5 14 77 4 1 2 2 15 2 78 33 18 49 22 34 36 6 7 28
CALL[ ]	/* CallFunction */";
};
width = 598;
}
);
note = R;
unicode = 82;
},
{
glyphname = S;
kernLeft = S;
kernRight = S;
layers = (
{
layerId = m01;
shapes = (
{
closed = 1;
nodes = (
(273,443,o),
(251,451,o),
(199,475,o),
(179,494,o),
(159,526,o),
(159,545,qs),
(159,552,ls),
(163,604,o),
(252,673,o),
(310,673,qs),
(424,673,o),
(496,601,q),
(500,640,l),
(422,718,o),
(314,718,qs),
(224,718,o),
(85,611,o),
(78,531,qs),
(78,529,o),
(77,520,o),
(77,518,qs),
(77,406,o),
(265,342,qs),
(421,289,o),
(421,203,qs),
(421,194,ls),
(416,132,o),
(319,45,o),
(255,45,qs),
(121,45,o),
(30,118,q),
(27,79,l),
(127,0,o),
(250,0,qs),
(345,0,o),
(494,125,o),
(502,215,qs),
(502,218,o),
(503,228,o),
(503,230,qs),
(503,301,o),
(391,404,o),
(305,432,qs)
);
}
);
userData = {
assembly = "NPUSHB[ ]	/* 39 values pushed */
35 30 21 16 11 2 6 1 3 1 76 0 3 3 2 97 0 2 2 16 77 0 1 1 0 97 0 0 0 15 0 78 35 44 35 39 4 7 26
CALL[ ]	/* CallFunction */";
};
width = 547;
}
);
note = S;
unicode = 83;
},
{
glyphname = T;
kernLeft = T;
kernRight = T;
layers = (
{
layerId = m01;
shapes = (
{
closed = 1;
nodes = (
(208,654,l),
(150,1,l),
(232,1,l),
(289,654,l),
(490,654,l),
(494,700,l),
(11,700,l),
(7,654,l)
);
}
);
userData = {
assembly = "NPUSHB[ ]	/* 24 values pushed */
3 1 1 1 0 95 0 0 0 14 77 0 2 2 15 2 78 17 17 17 16 4 7 26
CALL[ ]	/* CallFunction */";
};
width = 501;
}
);
note = T;
unicode = 84;
},
{
glyphname = U;
kernLeft = U;
kernRight = U;
layers = (
{
layerId = m01;
shapes = (
{
closed = 1;
nodes = (
(466,146,o),
(361,40,o),
(291,40,qs),
(225,40,o),
(139,134,o),
(139,201,qs),
(139,213,o),
(140,219,qs),
(183,700,l),
(101,700,l),
(57,204,ls),
(56,198,o),
(56,186,qs),
(56,104,o),
(180,-5,o),
(269,-5,qs),
(363,-5,o),
(510,116,o),
(518,204,qs),
(562,700,l),
(516,700,l),
(473,219,ls)
);
}
);
userData = {
assembly = "NPUSHB[ ]	/* 30 values pushed */
13 1 3 0 1 76 2 1 0 0 14 77 0 3 3 1 97 0 1 1 17 1 78 37 21 35 16 4 7 26
CALL[ ]	/* CallFunction */";
};
width = 608;
}
);
note = U;
unicode = 85;
},
{
glyphname = V;
kernLeft = V;
kernRight = V;
layers = (
{
layerId = m01;
shapes = (
{
closed = 1;
nodes = (
(109,700,l),
(22,700,l),
(197,1,l),
(251,1,l),
(549,700,l),
(500,700,l),
(254,120,l)
);
}
);
userData = {
assembly = "NPUSHB[ ]	/* 24 values pushed */
6 1 1 0 1 76 2 1 0 0 14 77 0 1 1 15 1 78 17 17 16 3 7 25
CALL[ ]	/* CallFunction */";
};
width = 560;
}
);
note = V;
unicode = 86;
},
{
glyphname = W;
kernLeft = W;
kernRight = W;
layers = (
{
layerId = m01;
shapes = (
{
closed = 1;
nodes = (
(454,700,l),
(407,700,l),
(214,149,l),
(118,700,l),
(33,700,l),
(155,1,l),
(210,1,l),
(398,539,l),
(492,1,l),
(547,1,l),
(791,700,l),
(743,700,l),
(551,149,l)
);
}
);
userData = {
assembly = "NPUSHB[ ]	/* 30 values pushed */
12 9 4 3 1 0 1 76 4 3 2 0 0 14 77 2 1 1 1 15 1 78 18 17 18 17 16 5 7 27
CALL[ ]	/* CallFunction */";
};
width = 807;
}
);
note = W;
unicode = 87;
},
{
glyphname = X;
kernLeft = X;
kernRight = X;
layers = (
{
layerId = m01;
shapes = (
{
closed = 1;
nodes = (
(317,429,l),
(187,700,l),
(93,700,l),
(259,357,l),
(8,1,l),
(62,1,l),
(281,312,l),
(430,1,l),
(524,1,l),
(339,384,l),
(561,700,l),
(507,700,l)
);
}
);
userData = {
assembly = "NPUSHB[ ]	/* 35 values pushed */
10 7 4 1 4 0 2 1 76 4 3 2 2 2 14 77 1 1 0 0 15 0 78 0 0 0 11 0 11 18 18 18 5 7 25
CALL[ ]	/* CallFunction */";
};
width = 574;
}
);
note = X;
unicode = 88;
},
{
glyphname = Y;
kernLeft = Y;
kernRight = Y;
layers = (
{
layerId = m01;
shapes = (
{
closed = 1;
nodes = (
(103,700,l),
(13,700,l),
(177,281,l),
(152,1,l),
(234,1,l),
(262,321,l),
(496,700,l),
(444,700,l),
(231,355,l)
);
}
);
userData = {
assembly = "NPUSHB[ ]	/* 24 values pushed */
8 1 1 0 1 76 2 1 0 0 14 77 0 1 1 15 1 78 18 18 16 3 7 25
CALL[ ]	/* CallFunction */";
};
width = 502;
}
);
note = Y;
unicode = 89;
},
{
glyphname = Z;
kernLeft = Z;
kernRight = Z;
layers = (
{
layerId = m01;
shapes = (
{
closed = 1;
nodes = (
(90,654,l),
(427,654,l),
(21,49,l),
(17,1,l),
(478,1,l),
(482,47,l),
(115,47,l),
(519,649,l),
(523,700,l),
(94,700,l)
);
}
);
userData = {
assembly = "NPUSHB[ ]	/* 34 values pushed */
0 2 2 3 95 4 1 3 3 14 77 0 0 0 1 95 0 1 1 15 1 78 0 0 0 9 0 9 18 17 18 5 7 25
CALL[ ]	/* CallFunction */";
};
width = 544;
}
);
note = Z;
unicode = 90;
},
{
glyphname = underscore;
layers = (
{
layerId = m01;
shapes = (
{
closed = 1;
nodes = (
(35,36,l),
(35,0,l),
(459,0,l),
(459,36,l)
);
}
);
userData = {
assembly = "PUSHB[ ]	/* 2 values pushed */
6 100
WCVTP[ ]	/* WriteCVTInPixels */
NPUSHB[ ]	/* 21 values pushed */
0 1 0 0 1 87 0 1 1 0 95 0 0 1 0 79 17 16 2 7 24
CALL[ ]	/* CallFunction */
PUSHB[ ]	/* 2 values pushed */
6 0
WCVTP[ ]	/* WriteCVTInPixels */";
};
width = 495;
}
);
note = underscore;
unicode = 95;
},
{
glyphname = Oacute;
kernLeft = G;
kernRight = O;
lastChange = "2026-01-31 11:58:30 +0000";
layers = (
{
layerId = m01;
shapes = (
{
closed = 1;
nodes = (
(279,741,l),
(527,833,l),
(527,871,l),
(279,778,l)
);
},
{
closed = 1;
nodes = (
(653,220,o),
(491,32,o),
(376,32,qs),
(269,32,o),
(139,195,o),
(139,317,qs),
(139,330,o),
(141,354,qs),
(153,488,o),
(316,676,o),
(431,676,qs),
(537,676,o),
(667,513,o),
(667,391,qs),
(667,378,o),
(665,354,qs)
);
},
{
closed = 1;
nodes = (
(281,713,o),
(58,511,o),
(44,354,qs),
(42,328,o),
(42,317,qs),
(42,174,o),
(228,-5,o),
(372,-5,qs),
(526,-5,o),
(749,197,o),
(763,354,qs),
(765,380,o),
(765,391,qs),
(765,534,o),
(579,713,o),
(435,713,qs)
);
}
);
userData = {
assembly = "NPUSHB[ ]	/* 41 values pushed */
3 2 1 0 4 3 74 0 0 0 3 97 4 1 3 3 16 77 0 1 1 2 97 0 2 2 17 2 78 20 20 20 35 20 34 41 38 39 5 7 25
CALL[ ]	/* CallFunction */";
};
width = 807;
}
);
note = Oacute;
unicode = 211;
},
{
glyphname = Aogonek;
kernLeft = A;
kernRight = A;
layers = (
{
layerId = m01;
shapes = (
{
closed = 1;
nodes = (
(353,398,l),
(230,398,l),
(307,581,l)
);
},
{
closed = 1;
nodes = (
(403,-83,o),
(403,-67,qs),
(403,-40,o),
(440,0,o),
(467,1,qs),
(539,1,l),
(363,700,l),
(310,700,l),
(12,1,l),
(61,1,l),
(214,361,l),
(362,361,l),
(444,35,l),
(410,26,o),
(366,-31,o),
(366,-67,qs),
(366,-94,o),
(378,-116,qs),
(392,-142,o),
(442,-173,o),
(472,-173,q),
(472,-136,l),
(430,-136,o),
(411,-99,qs)
);
}
);
userData = {
assembly = "NPUSHB[ ]	/* 47 values pushed */
2 1 0 5 13 1 4 3 2 76 0 0 0 3 4 0 3 104 0 1 0 2 1 2 101 0 5 5 14 77 6 1 4 4 15 4 78 33 17 17 24 17 18 16 7 7 29
CALL[ ]	/* CallFunction */";
};
width = 562;
}
);
note = Aogonek;
unicode = 260;
},
{
glyphname = Cacute;
kernLeft = C;
kernRight = C;
layers = (
{
layerId = m01;
shapes = (
{
closed = 1;
nodes = (
(280,741,l),
(528,833,l),
(528,871,l),
(280,778,l)
);
},
{
closed = 1;
nodes = (
(221,713,o),
(66,517,o),
(52,354,qs),
(49,324,o),
(49,295,qs),
(49,158,o),
(172,-5,o),
(295,-5,qs),
(402,-5,o),
(493,61,q),
(497,107,l),
(406,41,o),
(299,41,qs),
(214,41,o),
(145,159,o),
(145,265,qs),
(145,313,o),
(149,354,qs),
(154,409,o),
(170,496,o),
(200,579,o),
(244,634,o),
(310,668,o),
(353,668,qs),
(420,668,o),
(527,597,o),
(550,536,q),
(555,590,l),
(529,647,o),
(422,713,o),
(357,713,qs)
);
}
);
userData = {
assembly = "NPUSHB[ ]	/* 48 values pushed */
23 7 2 1 0 1 76 3 2 1 0 4 3 74 0 0 0 3 97 4 1 3 3 16 77 0 1 1 2 97 0 2 2 17 2 78 4 4 4 34 4 33 35 41 41 5 7 25
CALL[ ]	/* CallFunction */";
};
width = 582;
}
);
note = Cacute;
unicode = 262;
},
{
glyphname = Eogonek;
kernLeft = B;
kernRight = E;
layers = (
{
layerId = m01;
shapes = (
{
closed = 1;
nodes = (
(112,700,l),
(51,1,l),
(408,1,l),
(383,-27,o),
(383,-67,qs),
(383,-110,o),
(446,-173,o),
(489,-173,q),
(489,-136,l),
(460,-136,o),
(420,-96,o),
(420,-67,qs),
(420,-40,o),
(457,0,o),
(484,1,qs),
(490,1,l),
(494,47,l),
(137,47,l),
(164,361,l),
(427,361,l),
(427,398,l),
(168,398,l),
(190,654,l),
(523,654,l),
(527,700,l)
);
}
);
userData = {
assembly = "NPUSHB[ ]	/* 49 values pushed */
0 1 0 2 3 1 2 103 0 5 0 6 5 6 101 0 0 0 8 95 0 8 8 14 77 0 3 3 4 97 7 1 4 4 15 4 78 17 20 17 20 33 17 17 17 16 9 7 31
CALL[ ]	/* CallFunction */";
};
width = 547;
}
);
note = Eogonek;
unicode = 280;
},
{
glyphname = Lslash;
kernLeft = Lslash;
kernRight = Lslash;
layers = (
{
layerId = m01;
shapes = (
{
closed = 1;
nodes = (
(204,398,l),
(230,700,l),
(149,700,l),
(122,398,l),
(25,398,l),
(25,361,l),
(119,361,l),
(87,1,l),
(439,1,l),
(443,47,l),
(173,47,l),
(201,361,l),
(449,361,l),
(449,398,l)
);
}
);
userData = {
assembly = "NPUSHB[ ]	/* 36 values pushed */
6 1 4 3 1 0 1 4 0 104 0 5 5 14 77 0 1 1 2 95 0 2 2 15 2 78 17 17 17 17 17 17 16 7 7 29
CALL[ ]	/* CallFunction */";
};
width = 474;
}
);
note = Lslash;
unicode = 321;
},
{
glyphname = Nacute;
kernLeft = B;
kernRight = H;
layers = (
{
layerId = m01;
shapes = (
{
closed = 1;
nodes = (
(296,741,l),
(543,833,l),
(543,871,l),
(296,778,l)
);
},
{
closed = 1;
nodes = (
(166,700,l),
(111,700,l),
(50,1,l),
(96,1,l),
(146,573,l),
(511,1,l),
(566,1,l),
(627,700,l),
(581,700,l),
(531,128,l)
);
}
);
userData = {
assembly = "NPUSHB[ ]	/* 34 values pushed */
13 8 2 1 0 1 76 3 2 1 0 4 0 74 3 1 0 0 14 77 2 1 1 1 15 1 78 17 18 17 20 4 7 26
CALL[ ]	/* CallFunction */";
};
width = 677;
}
);
note = Nacute;
unicode = 323;
},
{
glyphname = Sacute;
kernLeft = S;
kernRight = S;
layers = (
{
layerId = m01;
shapes = (
{
closed = 1;
nodes = (
(205,746,l),
(453,838,l),
(453,876,l),
(205,783,l)
);
},
{
closed = 1;
nodes = (
(273,443,o),
(251,451,o),
(199,475,o),
(179,494,o),
(159,526,o),
(159,545,qs),
(159,552,ls),
(163,604,o),
(252,673,o),
(310,673,qs),
(424,673,o),
(496,601,q),
(500,640,l),
(422,718,o),
(314,718,qs),
(224,718,o),
(85,611,o),
(78,531,qs),
(78,529,o),
(77,520,o),
(77,518,qs),
(77,406,o),
(265,342,qs),
(421,289,o),
(421,203,qs),
(421,194,ls),
(416,132,o),
(319,45,o),
(255,45,qs),
(121,45,o),
(30,118,q),
(27,79,l),
(127,0,o),
(250,0,qs),
(345,0,o),
(494,125,o),
(502,215,qs),
(502,218,o),
(503,228,o),
(503,230,qs),
(503,301,o),
(391,404,o),
(305,432,qs)
);
}
);
userData = {
assembly = "NPUSHB[ ]	/* 46 values pushed */
39 34 25 20 15 6 6 1 3 1 76 3 2 1 0 4 2 74 0 3 3 2 97 0 2 2 16 77 0 1 1 0 97 0 0 0 15 0 78 35 44 35 43 4 7 26
CALL[ ]	/* CallFunction */";
};
width = 547;
}
);
note = Sacute;
unicode = 346;
},
{
glyphname = Zacute;
kernLeft = Z;
kernRight = Z;
layers = (
{
layerId = m01;
shapes = (
{
closed = 1;
nodes = (
(213,741,l),
(461,833,l),
(461,871,l),
(213,778,l)
);
},
{
closed = 1;
nodes = (
(90,654,l),
(427,654,l),
(21,49,l),
(17,1,l),
(478,1,l),
(482,47,l),
(115,47,l),
(519,649,l),
(523,700,l),
(94,700,l)
);
}
);
userData = {
assembly = "NPUSHB[ ]	/* 41 values pushed */
3 2 1 0 4 3 74 0 2 2 3 95 4 1 3 3 14 77 0 0 0 1 95 0 1 1 15 1 78 4 4 4 13 4 13 18 17 22 5 7 25
CALL[ ]	/* CallFunction */";
};
width = 544;
}
);
note = Zacute;
unicode = 377;
},
{
glyphname = Zdot;
kernLeft = Zdot;
kernRight = Zdot;
layers = (
{
layerId = m01;
shapes = (
{
closed = 1;
nodes = (
(99,654,l),
(436,654,l),
(265,398,l),
(85,398,l),
(85,361,l),
(240,361,l),
(30,49,l),
(26,1,l),
(487,1,l),
(491,47,l),
(124,47,l),
(334,361,l),
(508,361,l),
(508,398,l),
(360,398,l),
(528,649,l),
(532,700,l),
(103,700,l)
);
}
);
userData = {
assembly = "NPUSHB[ ]	/* 48 values pushed */
5 1 0 4 1 1 2 0 1 103 0 6 6 7 95 8 1 7 7 14 77 0 2 2 3 95 0 3 3 15 3 78 0 0 0 17 0 17 17 17 18 17 17 17 18 9 7 29
CALL[ ]	/* CallFunction */";
};
width = 565;
}
);
note = Zdot;
unicode = 379;
},
{
glyphname = endash;
layers = (
{
layerId = m01;
shapes = (
{
closed = 1;
nodes = (
(36,397,l),
(36,360,l),
(460,360,l),
(460,397,l)
);
}
);
userData = {
assembly = "NPUSHB[ ]	/* 21 values pushed */
0 1 0 0 1 87 0 1 1 0 95 0 0 1 0 79 17 16 2 7 24
CALL[ ]	/* CallFunction */";
};
width = 497;
}
);
note = endash;
unicode = 8211;
},
{
glyphname = emdash;
layers = (
{
layerId = m01;
shapes = (
{
closed = 1;
nodes = (
(35,396,l),
(35,359,l),
(742,359,l),
(742,396,l)
);
}
);
userData = {
assembly = "NPUSHB[ ]	/* 21 values pushed */
0 1 0 0 1 87 0 1 1 0 95 0 0 1 0 79 17 16 2 7 24
CALL[ ]	/* CallFunction */";
};
width = 778;
}
);
note = emdash;
unicode = 8212;
},
{
glyphname = quotedblbase;
kernLeft = quotedblbase;
layers = (
{
layerId = m01;
shapes = (
{
closed = 1;
nodes = (
(213,163,o),
(213,104,qs),
(213,94,o),
(209,72,qs),
(196,14,o),
(151,-13,q),
(170,-45,l),
(227,-11,o),
(245,64,qs),
(250,87,o),
(250,104,qs),
(250,181,o),
(197,223,q),
(174,194,l)
);
},
{
closed = 1;
nodes = (
(96,163,o),
(96,104,qs),
(96,94,o),
(92,72,qs),
(79,14,o),
(34,-13,q),
(53,-45,l),
(110,-11,o),
(128,64,qs),
(133,87,o),
(133,105,qs),
(133,180,o),
(81,223,q),
(57,194,l)
);
}
);
userData = {
assembly = "PUSHB[ ]	/* 6 values pushed */
20 14 6 0 2 50
CALL[ ]	/* CallFunction */";
};
width = 304;
}
);
note = quotedblbase;
unicode = 8222;
},
{
glyphname = ellipsis;
kernLeft = period;
layers = (
{
layerId = m01;
shapes = (
{
closed = 1;
nodes = (
(411,0,o),
(441,0,o),
(461,20,o),
(461,50,o),
(441,71,o),
(411,71,o),
(390,50,o),
(390,20,o)
);
},
{
closed = 1;
nodes = (
(236,0,o),
(266,0,o),
(286,20,o),
(286,50,o),
(266,71,o),
(236,71,o),
(216,50,o),
(216,20,o)
);
},
{
closed = 1;
nodes = (
(61,0,o),
(91,0,o),
(112,20,o),
(112,50,o),
(91,71,o),
(61,71,o),
(41,50,o),
(41,20,o)
);
}
);
userData = {
assembly = "NPUSHB[ ]	/* 24 values pushed */
4 2 2 0 0 1 97 5 3 2 1 1 15 1 78 19 19 19 19 19 17 6 7 28
CALL[ ]	/* CallFunction */";
};
width = 502;
}
);
note = ellipsis;
unicode = 8230;
},
{
glyphname = A.001;
kernLeft = A;
kernRight = A;
lastChange = "2026-01-31 12:00:35 +0000";
layers = (
{
layerId = m01;
shapes = (
{
closed = 1;
nodes = (
(353,398,l),
(230,398,l),
(307,581,l)
);
},
{
closed = 1;
nodes = (
(12,1,l),
(61,1,l),
(214,361,l),
(362,361,l),
(452,1,l),
(539,1,l),
(363,700,l),
(310,700,l)
);
}
);
userData = {
assembly = "NPUSHB[ ]	/* 40 values pushed */
2 1 0 4 1 76 0 0 0 2 1 0 2 104 5 1 4 4 14 77 3 1 1 1 15 1 78 3 3 3 10 3 10 17 17 19 16 6 7 26
CALL[ ]	/* CallFunction */";
};
width = 562;
}
);
note = A;
unicode = 97;
},
{
glyphname = Aogonek.001;
kernLeft = A;
kernRight = A;
lastChange = "2026-01-31 11:56:18 +0000";
layers = (
{
layerId = m01;
shapes = (
{
closed = 1;
nodes = (
(353,398,l),
(230,398,l),
(307,581,l)
);
},
{
closed = 1;
nodes = (
(403,-83,o),
(403,-67,qs),
(403,-40,o),
(440,0,o),
(467,1,qs),
(539,1,l),
(363,700,l),
(310,700,l),
(12,1,l),
(61,1,l),
(214,361,l),
(362,361,l),
(444,35,l),
(410,26,o),
(366,-31,o),
(366,-67,qs),
(366,-94,o),
(378,-116,qs),
(392,-142,o),
(442,-173,o),
(472,-173,q),
(472,-136,l),
(430,-136,o),
(411,-99,qs)
);
}
);
userData = {
assembly = "NPUSHB[ ]	/* 47 values pushed */
2 1 0 5 13 1 4 3 2 76 0 0 0 3 4 0 3 104 0 1 0 2 1 2 101 0 5 5 14 77 6 1 4 4 15 4 78 33 17 17 24 17 18 16 7 7 29
CALL[ ]	/* CallFunction */";
};
width = 562;
}
);
note = Aogonek;
unicode = 261;
},
{
glyphname = B.001;
kernLeft = B;
kernRight = B;
lastChange = "2026-01-31 12:01:05 +0000";
layers = (
{
layerId = m01;
shapes = (
{
closed = 1;
nodes = (
(425,131,o),
(327,49,o),
(261,49,qs),
(219,49,o),
(136,50,q),
(162,362,l),
(276,362,ls),
(340,362,o),
(431,271,o),
(431,208,qs),
(431,206,o),
(430,196,o),
(430,194,qs)
);
},
{
closed = 1;
nodes = (
(363,658,o),
(427,599,o),
(427,552,qs),
(427,541,l),
(421,476,o),
(312,397,o),
(240,397,qs),
(165,397,l),
(189,657,l),
(315,658,ls)
);
},
{
closed = 1;
nodes = (
(500,431,o),
(509,541,qs),
(510,547,o),
(510,560,qs),
(510,631,o),
(409,700,o),
(320,700,qs),
(111,700,l),
(50,1,l),
(257,1,ls),
(373,1,o),
(519,97,o),
(528,194,qs),
(529,201,o),
(529,215,qs),
(529,284,o),
(451,376,o),
(383,392,q)
);
}
);
userData = {
assembly = "NPUSHB[ ]	/* 56 values pushed */
18 1 2 3 40 1 0 2 2 76 0 2 0 0 1 2 0 103 6 1 3 3 5 95 0 5 5 14 77 0 1 1 4 95 0 4 4 15 4 78 13 13 34 32 31 29 13 22 13 21 36 49 36 7 7 25
CALL[ ]	/* CallFunction */";
};
width = 579;
}
);
note = B;
unicode = 98;
},
{
glyphname = C.001;
kernLeft = C;
kernRight = C;
lastChange = "2026-01-31 12:01:12 +0000";
layers = (
{
layerId = m01;
shapes = (
{
closed = 1;
nodes = (
(239,713,o),
(62,524,o),
(48,367,qs),
(46,335,o),
(46,319,qs),
(46,177,o),
(189,-5,o),
(316,-5,qs),
(423,-5,o),
(514,61,q),
(518,107,l),
(427,41,o),
(320,41,qs),
(229,41,o),
(143,187,o),
(143,304,qs),
(143,336,o),
(146,367,qs),
(158,504,o),
(270,668,o),
(375,668,qs),
(442,668,o),
(549,597,o),
(572,536,q),
(577,590,l),
(551,647,o),
(444,713,o),
(379,713,qs)
);
}
);
userData = {
assembly = "NPUSHB[ ]	/* 42 values pushed */
24 16 3 3 1 0 1 76 0 0 0 3 97 4 1 3 3 16 77 0 1 1 2 97 0 2 2 17 2 78 0 0 0 27 0 26 35 38 37 5 7 25
CALL[ ]	/* CallFunction */";
};
width = 603;
}
);
note = C;
unicode = 99;
},
{
glyphname = Cacute.001;
kernLeft = C;
kernRight = C;
lastChange = "2026-01-31 11:56:36 +0000";
layers = (
{
layerId = m01;
shapes = (
{
closed = 1;
nodes = (
(280,741,l),
(528,833,l),
(528,871,l),
(280,778,l)
);
},
{
closed = 1;
nodes = (
(221,713,o),
(66,517,o),
(52,354,qs),
(49,324,o),
(49,295,qs),
(49,158,o),
(172,-5,o),
(295,-5,qs),
(402,-5,o),
(493,61,q),
(497,107,l),
(406,41,o),
(299,41,qs),
(214,41,o),
(145,159,o),
(145,265,qs),
(145,313,o),
(149,354,qs),
(154,409,o),
(170,496,o),
(200,579,o),
(244,634,o),
(310,668,o),
(353,668,qs),
(420,668,o),
(527,597,o),
(550,536,q),
(555,590,l),
(529,647,o),
(422,713,o),
(357,713,qs)
);
}
);
userData = {
assembly = "NPUSHB[ ]	/* 48 values pushed */
23 7 2 1 0 1 76 3 2 1 0 4 3 74 0 0 0 3 97 4 1 3 3 16 77 0 1 1 2 97 0 2 2 17 2 78 4 4 4 34 4 33 35 41 41 5 7 25
CALL[ ]	/* CallFunction */";
};
width = 582;
}
);
note = Cacute;
unicode = 263;
},
{
glyphname = D.001;
kernLeft = B;
kernRight = D;
lastChange = "2026-01-31 12:01:18 +0000";
layers = (
{
layerId = m01;
shapes = (
{
closed = 1;
nodes = (
(504,269,o),
(457,137,o),
(362,46,o),
(298,46,qs),
(247,46,o),
(136,47,q),
(189,655,l),
(353,656,ls),
(436,656,o),
(513,516,o),
(513,407,qs),
(513,370,o),
(511,351,qs)
);
},
{
closed = 1;
nodes = (
(306,701,o),
(111,699,q),
(50,1,l),
(294,0,ls),
(434,0,o),
(595,190,o),
(609,351,qs),
(612,380,o),
(612,407,qs),
(612,544,o),
(484,701,o),
(357,701,qs)
);
}
);
userData = {
assembly = "NPUSHB[ ]	/* 34 values pushed */
0 0 0 3 95 4 1 3 3 14 77 0 1 1 2 95 0 2 2 15 2 78 13 13 13 24 13 22 42 49 35 5 7 25
CALL[ ]	/* CallFunction */";
};
width = 659;
}
);
note = D;
unicode = 100;
},
{
glyphname = E.001;
kernLeft = B;
kernRight = E;
lastChange = "2026-01-31 12:01:25 +0000";
layers = (
{
layerId = m01;
shapes = (
{
closed = 1;
nodes = (
(112,698,l),
(51,0,l),
(490,0,l),
(494,46,l),
(137,46,l),
(164,360,l),
(427,360,l),
(427,397,l),
(168,397,l),
(190,653,l),
(523,653,l),
(527,698,l)
);
}
);
userData = {
assembly = "NPUSHB[ ]	/* 38 values pushed */
0 1 0 2 3 1 2 103 0 0 0 5 95 0 5 5 14 77 0 3 3 4 95 0 4 4 15 4 78 17 17 17 17 17 16 6 7 28
CALL[ ]	/* CallFunction */";
};
width = 547;
}
);
note = E;
unicode = 101;
},
{
glyphname = Eogonek.001;
kernLeft = B;
kernRight = E;
lastChange = "2026-01-31 11:56:49 +0000";
layers = (
{
layerId = m01;
shapes = (
{
closed = 1;
nodes = (
(112,700,l),
(51,1,l),
(408,1,l),
(383,-27,o),
(383,-67,qs),
(383,-110,o),
(446,-173,o),
(489,-173,q),
(489,-136,l),
(460,-136,o),
(420,-96,o),
(420,-67,qs),
(420,-40,o),
(457,0,o),
(484,1,qs),
(490,1,l),
(494,47,l),
(137,47,l),
(164,361,l),
(427,361,l),
(427,398,l),
(168,398,l),
(190,654,l),
(523,654,l),
(527,700,l)
);
}
);
userData = {
assembly = "NPUSHB[ ]	/* 49 values pushed */
0 1 0 2 3 1 2 103 0 5 0 6 5 6 101 0 0 0 8 95 0 8 8 14 77 0 3 3 4 97 7 1 4 4 15 4 78 17 20 17 20 33 17 17 17 16 9 7 31
CALL[ ]	/* CallFunction */";
};
width = 547;
}
);
note = Eogonek;
unicode = 281;
},
{
glyphname = F.001;
kernLeft = B;
kernRight = F;
lastChange = "2026-01-31 12:01:33 +0000";
layers = (
{
layerId = m01;
shapes = (
{
closed = 1;
nodes = (
(111,700,l),
(50,1,l),
(132,1,l),
(163,361,l),
(426,361,l),
(426,398,l),
(167,398,l),
(189,654,l),
(522,654,l),
(526,700,l)
);
}
);
userData = {
assembly = "NPUSHB[ ]	/* 32 values pushed */
0 1 0 2 3 1 2 103 0 0 0 4 95 0 4 4 14 77 0 3 3 15 3 78 17 17 17 17 16 5 7 27
CALL[ ]	/* CallFunction */";
};
width = 537;
}
);
note = F;
unicode = 102;
},
{
glyphname = G.001;
kernLeft = G;
kernRight = G;
lastChange = "2026-01-31 12:01:40 +0000";
layers = (
{
layerId = m01;
shapes = (
{
closed = 1;
nodes = (
(521,361,l),
(507,106,l),
(440,41,o),
(351,41,qs),
(253,41,o),
(140,204,o),
(140,324,qs),
(140,339,o),
(142,367,qs),
(154,499,o),
(296,668,o),
(405,668,qs),
(469,668,o),
(578,613,o),
(613,564,q),
(617,610,l),
(582,659,o),
(473,713,o),
(409,713,qs),
(264,713,o),
(58,521,o),
(45,367,qs),
(43,341,o),
(43,328,qs),
(43,185,o),
(213,-5,o),
(346,-5,qs),
(436,-5,o),
(503,60,q),
(498,1,l),
(579,1,l),
(603,361,l),
(696,361,l),
(696,398,l),
(316,398,l),
(316,361,l)
);
}
);
userData = {
assembly = "NPUSHB[ ]	/* 11 values pushed */
20 1 0 5 33 6 2 6 1 2 76
MPPEM[ ]	/* MeasurePixelPerEm */
PUSHB[ ]	/* 1 value pushed */
10
LT[ ]	/* LessThan */
IF[ ]	/* If */
NPUSHB[ ]	/* 31 values pushed */
0 0 7 1 1 6 0 1 103 0 5 5 4 97 0 4 4 16 77 0 6 6 2 97 3 1 2 2 15 2 78
ELSE[ ]	/* Else */
MPPEM[ ]	/* MeasurePixelPerEm */
PUSHB[ ]	/* 1 value pushed */
11
LT[ ]	/* LessThan */
IF[ ]	/* If */
NPUSHB[ ]	/* 35 values pushed */
0 0 7 1 1 6 0 1 103 0 5 5 4 97 0 4 4 16 77 0 2 2 15 77 0 6 6 3 97 0 3 3 17 3 78
ELSE[ ]	/* Else */
MPPEM[ ]	/* MeasurePixelPerEm */
PUSHB[ ]	/* 1 value pushed */
39
LT[ ]	/* LessThan */
IF[ ]	/* If */
NPUSHB[ ]	/* 31 values pushed */
0 0 7 1 1 6 0 1 103 0 5 5 4 97 0 4 4 16 77 0 6 6 2 97 3 1 2 2 15 2 78
ELSE[ ]	/* Else */
NPUSHB[ ]	/* 35 values pushed */
0 0 7 1 1 6 0 1 103 0 5 5 4 97 0 4 4 16 77 0 2 2 15 77 0 6 6 3 97 0 3 3 17 3 78
EIF[ ]	/* EndIf */
EIF[ ]	/* EndIf */
EIF[ ]	/* EndIf */
NPUSHB[ ]	/* 11 values pushed */
18 38 37 38 34 17 17 16 8 7 30
CALL[ ]	/* CallFunction */";
};
width = 719;
}
);
note = G;
unicode = 103;
},
{
glyphname = H.001;
kernLeft = B;
kernRight = H;
lastChange = "2026-01-31 12:01:43 +0000";
layers = (
{
layerId = m01;
shapes = (
{
closed = 1;
nodes = (
(167,398,l),
(193,700,l),
(111,700,l),
(50,1,l),
(132,1,l),
(163,361,l),
(481,361,l),
(449,1,l),
(531,1,l),
(592,700,l),
(510,700,l),
(484,398,l)
);
}
);
userData = {
assembly = "NPUSHB[ ]	/* 30 values pushed */
0 5 0 2 1 5 2 104 4 1 0 0 14 77 3 1 1 1 15 1 78 17 17 17 17 17 16 6 7 28
CALL[ ]	/* CallFunction */";
};
width = 643;
}
);
note = H;
unicode = 104;
},
{
glyphname = I.001;
kernLeft = B;
kernRight = H;
lastChange = "2026-01-31 12:01:51 +0000";
layers = (
{
layerId = m01;
shapes = (
{
closed = 1;
nodes = (
(132,1,l),
(193,700,l),
(111,700,l),
(50,1,l)
);
}
);
userData = {
assembly = "NPUSHB[ ]	/* 16 values pushed */
0 0 0 14 77 0 1 1 15 1 78 17 16 2 7 24
CALL[ ]	/* CallFunction */";
};
width = 243;
}
);
note = I;
unicode = 105;
},
{
glyphname = J.001;
kernLeft = J;
kernRight = H;
lastChange = "2026-01-31 12:01:56 +0000";
layers = (
{
layerId = m01;
shapes = (
{
closed = 1;
nodes = (
(49,-42,o),
(3,-42,qs),
(-13,-42,o),
(-53,-24,o),
(-64,-13,q),
(-67,-43,l),
(-27,-88,o),
(38,-88,qs),
(80,-88,o),
(133,-8,o),
(138,47,qs),
(196,700,l),
(114,700,l),
(57,47,ls)
);
}
);
userData = {
assembly = "NPUSHB[ ]	/* 25 values pushed */
8 1 2 0 1 76 0 2 0 1 2 1 101 0 0 0 14 0 78 36 35 16 3 7 25
CALL[ ]	/* CallFunction */";
};
width = 246;
}
);
note = J;
unicode = 106;
},
{
glyphname = K.001;
kernLeft = B;
kernRight = K;
lastChange = "2026-01-31 12:02:02 +0000";
layers = (
{
layerId = m01;
shapes = (
{
closed = 1;
nodes = (
(168,409,l),
(193,700,l),
(111,700,l),
(50,1,l),
(132,1,l),
(161,340,l),
(453,1,l),
(566,1,l),
(224,398,l),
(604,700,l),
(533,700,l)
);
}
);
userData = {
assembly = "NPUSHB[ ]	/* 34 values pushed */
9 4 1 3 0 2 1 76 4 3 2 2 2 14 77 1 1 0 0 15 0 78 0 0 0 10 0 10 17 18 18 5 7 25
CALL[ ]	/* CallFunction */";
};
width = 610;
}
);
note = K;
unicode = 107;
},
{
glyphname = L.001;
kernLeft = B;
kernRight = L;
lastChange = "2026-01-31 12:02:09 +0000";
layers = (
{
layerId = m01;
shapes = (
{
closed = 1;
nodes = (
(111,700,l),
(50,1,l),
(401,1,l),
(405,47,l),
(136,47,l),
(193,700,l)
);
}
);
userData = {
assembly = "NPUSHB[ ]	/* 22 values pushed */
0 2 2 14 77 0 0 0 1 95 0 1 1 15 1 78 17 17 16 3 7 25
CALL[ ]	/* CallFunction */";
};
width = 413;
}
);
note = L;
unicode = 108;
},
{
glyphname = Lslash.001;
kernLeft = Lslash;
kernRight = Lslash;
lastChange = "2026-01-31 11:57:00 +0000";
layers = (
{
layerId = m01;
shapes = (
{
closed = 1;
nodes = (
(204,398,l),
(230,700,l),
(149,700,l),
(122,398,l),
(25,398,l),
(25,361,l),
(119,361,l),
(87,1,l),
(439,1,l),
(443,47,l),
(173,47,l),
(201,361,l),
(449,361,l),
(449,398,l)
);
}
);
userData = {
assembly = "NPUSHB[ ]	/* 36 values pushed */
6 1 4 3 1 0 1 4 0 104 0 5 5 14 77 0 1 1 2 95 0 2 2 15 2 78 17 17 17 17 17 17 16 7 7 29
CALL[ ]	/* CallFunction */";
};
width = 474;
}
);
note = Lslash;
unicode = 322;
},
{
glyphname = M.001;
kernLeft = M;
lastChange = "2026-01-31 12:02:14 +0000";
layers = (
{
layerId = m01;
shapes = (
{
closed = 1;
nodes = (
(206,700,l),
(140,700,l),
(39,1,l),
(85,1,l),
(164,549,l),
(334,1,l),
(385,1,l),
(654,555,l),
(638,1,l),
(719,1,l),
(741,700,l),
(675,700,l),
(389,110,l)
);
}
);
userData = {
assembly = "NPUSHB[ ]	/* 30 values pushed */
12 7 4 3 1 0 1 76 4 1 0 0 14 77 3 2 2 1 1 15 1 78 17 18 18 17 16 5 7 27
CALL[ ]	/* CallFunction */";
};
width = 806;
}
);
note = M;
unicode = 109;
},
{
glyphname = N.001;
kernLeft = B;
kernRight = H;
lastChange = "2026-01-31 12:02:18 +0000";
layers = (
{
layerId = m01;
shapes = (
{
closed = 1;
nodes = (
(166,700,l),
(111,700,l),
(50,1,l),
(96,1,l),
(146,573,l),
(511,1,l),
(566,1,l),
(627,700,l),
(581,700,l),
(531,128,l)
);
}
);
userData = {
assembly = "NPUSHB[ ]	/* 27 values pushed */
9 4 2 1 0 1 76 3 1 0 0 14 77 2 1 1 1 15 1 78 17 18 17 16 4 7 26
CALL[ ]	/* CallFunction */";
};
width = 677;
}
);
note = N;
unicode = 110;
},
{
glyphname = Nacute.001;
kernLeft = B;
kernRight = H;
lastChange = "2026-01-31 11:57:10 +0000";
layers = (
{
layerId = m01;
shapes = (
{
closed = 1;
nodes = (
(296,741,l),
(543,833,l),
(543,871,l),
(296,778,l)
);
},
{
closed = 1;
nodes = (
(166,700,l),
(111,700,l),
(50,1,l),
(96,1,l),
(146,573,l),
(511,1,l),
(566,1,l),
(627,700,l),
(581,700,l),
(531,128,l)
);
}
);
userData = {
assembly = "NPUSHB[ ]	/* 34 values pushed */
13 8 2 1 0 1 76 3 2 1 0 4 0 74 3 1 0 0 14 77 2 1 1 1 15 1 78 17 18 17 20 4 7 26
CALL[ ]	/* CallFunction */";
};
width = 677;
}
);
note = Nacute;
unicode = 324;
},
{
glyphname = O.001;
kernLeft = G;
kernRight = O;
lastChange = "2026-01-31 12:02:25 +0000";
layers = (
{
layerId = m01;
shapes = (
{
closed = 1;
nodes = (
(653,220,o),
(491,32,o),
(376,32,qs),
(269,32,o),
(139,195,o),
(139,317,qs),
(139,330,o),
(141,354,qs),
(153,488,o),
(316,676,o),
(431,676,qs),
(537,676,o),
(667,513,o),
(667,391,qs),
(667,378,o),
(665,354,qs)
);
},
{
closed = 1;
nodes = (
(281,713,o),
(58,511,o),
(44,354,qs),
(42,328,o),
(42,317,qs),
(42,174,o),
(228,-5,o),
(372,-5,qs),
(526,-5,o),
(749,197,o),
(763,354,qs),
(765,380,o),
(765,391,qs),
(765,534,o),
(579,713,o),
(435,713,qs)
);
}
);
userData = {
assembly = "NPUSHB[ ]	/* 34 values pushed */
0 0 0 3 97 4 1 3 3 16 77 0 1 1 2 97 0 2 2 17 2 78 16 16 16 31 16 30 41 38 35 5 7 25
CALL[ ]	/* CallFunction */";
};
width = 807;
}
);
note = O;
unicode = 111;
},
{
glyphname = Oacute.001;
kernLeft = G;
kernRight = O;
lastChange = "2026-01-31 11:58:53 +0000";
layers = (
{
layerId = m01;
shapes = (
{
closed = 1;
nodes = (
(279,741,l),
(527,833,l),
(527,871,l),
(279,778,l)
);
},
{
closed = 1;
nodes = (
(653,220,o),
(491,32,o),
(376,32,qs),
(269,32,o),
(139,195,o),
(139,317,qs),
(139,330,o),
(141,354,qs),
(153,488,o),
(316,676,o),
(431,676,qs),
(537,676,o),
(667,513,o),
(667,391,qs),
(667,378,o),
(665,354,qs)
);
},
{
closed = 1;
nodes = (
(281,713,o),
(58,511,o),
(44,354,qs),
(42,328,o),
(42,317,qs),
(42,174,o),
(228,-5,o),
(372,-5,qs),
(526,-5,o),
(749,197,o),
(763,354,qs),
(765,380,o),
(765,391,qs),
(765,534,o),
(579,713,o),
(435,713,qs)
);
}
);
userData = {
assembly = "NPUSHB[ ]	/* 41 values pushed */
3 2 1 0 4 3 74 0 0 0 3 97 4 1 3 3 16 77 0 1 1 2 97 0 2 2 17 2 78 20 20 20 35 20 34 41 38 39 5 7 25
CALL[ ]	/* CallFunction */";
};
width = 807;
}
);
note = Oacute;
unicode = 243;
},
{
glyphname = P.001;
kernLeft = B;
kernRight = P;
lastChange = "2026-01-31 12:02:28 +0000";
layers = (
{
layerId = m01;
shapes = (
{
closed = 1;
nodes = (
(453,446,o),
(358,355,o),
(296,355,qs),
(233,355,o),
(164,371,q),
(189,654,l),
(323,655,ls),
(382,655,o),
(459,581,o),
(459,523,qs),
(459,521,o),
(458,513,o),
(458,510,qs)
);
},
{
closed = 1;
nodes = (
(50,1,l),
(132,1,l),
(160,325,l),
(224,310,o),
(292,310,qs),
(403,310,o),
(546,413,o),
(555,510,qs),
(556,517,o),
(556,531,qs),
(556,616,o),
(432,700,o),
(327,700,qs),
(111,700,l)
);
}
);
userData = {
assembly = "NPUSHB[ ]	/* 50 values pushed */
7 1 1 0 23 1 3 1 2 76 0 1 0 3 4 1 3 105 0 0 0 2 95 5 1 2 2 14 77 0 4 4 15 4 78 14 13 25 24 22 20 13 26 14 26 34 36 6 7 24
CALL[ ]	/* CallFunction */";
};
width = 586;
}
);
note = P;
unicode = 112;
},
{
glyphname = Q.001;
kernLeft = G;
kernRight = Q;
lastChange = "2026-01-31 12:02:34 +0000";
layers = (
{
layerId = m01;
shapes = (
{
closed = 1;
nodes = (
(422,227,l),
(523,83,l),
(455,33,o),
(376,33,qs),
(269,33,o),
(139,197,o),
(139,319,qs),
(139,332,o),
(141,356,qs),
(153,490,o),
(316,678,o),
(431,678,qs),
(537,678,o),
(667,515,o),
(667,393,qs),
(667,380,o),
(665,356,qs),
(651,200,o),
(550,105,q),
(465,227,l)
);
},
{
closed = 1;
nodes = (
(765,382,o),
(765,393,qs),
(765,536,o),
(579,715,o),
(435,715,qs),
(282,715,o),
(58,513,o),
(44,356,qs),
(42,330,o),
(42,319,qs),
(42,176,o),
(228,-4,o),
(372,-4,qs),
(468,-4,o),
(553,40,q),
(642,-87,l),
(685,-87,l),
(584,57,l),
(659,105,o),
(755,261,o),
(763,356,qs)
);
}
);
userData = {
assembly = "NPUSHB[ ]	/* 51 values pushed */
25 22 17 3 1 2 1 76 0 2 0 1 0 2 1 128 0 3 4 3 134 0 0 0 5 97 0 5 5 16 77 0 1 1 4 98 0 4 4 17 4 78 38 34 20 18 38 38 6 7 28
CALL[ ]	/* CallFunction */";
};
width = 807;
}
);
note = Q;
unicode = 113;
},
{
glyphname = R.001;
kernLeft = B;
lastChange = "2026-01-31 12:02:42 +0000";
layers = (
{
layerId = m01;
shapes = (
{
closed = 1;
nodes = (
(454,445,o),
(359,354,o),
(297,354,qs),
(234,354,o),
(165,370,q),
(190,653,l),
(324,654,ls),
(383,654,o),
(460,580,o),
(460,522,qs),
(460,520,o),
(459,512,o),
(459,509,qs)
);
},
{
closed = 1;
nodes = (
(557,516,o),
(557,530,qs),
(557,615,o),
(434,698,o),
(328,698,qs),
(112,698,l),
(51,0,l),
(133,0,l),
(161,324,l),
(230,308,o),
(293,308,qs),
(296,308,l),
(298,308,l),
(446,0,l),
(540,0,l),
(386,319,l),
(460,338,o),
(549,434,o),
(556,509,qs)
);
}
);
userData = {
assembly = "NPUSHB[ ]	/* 45 values pushed */
7 1 1 0 22 15 2 3 1 2 76 0 1 0 3 2 1 3 105 0 0 0 5 95 0 5 5 14 77 4 1 2 2 15 2 78 33 18 49 22 34 36 6 7 28
CALL[ ]	/* CallFunction */";
};
width = 598;
}
);
note = R;
unicode = 114;
},
{
glyphname = S.001;
kernLeft = S;
kernRight = S;
lastChange = "2026-01-31 12:02:49 +0000";
layers = (
{
layerId = m01;
shapes = (
{
closed = 1;
nodes = (
(273,443,o),
(251,451,o),
(199,475,o),
(179,494,o),
(159,526,o),
(159,545,qs),
(159,552,ls),
(163,604,o),
(252,673,o),
(310,673,qs),
(424,673,o),
(496,601,q),
(500,640,l),
(422,718,o),
(314,718,qs),
(224,718,o),
(85,611,o),
(78,531,qs),
(78,529,o),
(77,520,o),
(77,518,qs),
(77,406,o),
(265,342,qs),
(421,289,o),
(421,203,qs),
(421,194,ls),
(416,132,o),
(319,45,o),
(255,45,qs),
(121,45,o),
(30,118,q),
(27,79,l),
(127,0,o),
(250,0,qs),
(345,0,o),
(494,125,o),
(502,215,qs),
(502,218,o),
(503,228,o),
(503,230,qs),
(503,301,o),
(391,404,o),
(305,432,qs)
);
}
);
userData = {
assembly = "NPUSHB[ ]	/* 39 values pushed */
35 30 21 16 11 2 6 1 3 1 76 0 3 3 2 97 0 2 2 16 77 0 1 1 0 97 0 0 0 15 0 78 35 44 35 39 4 7 26
CALL[ ]	/* CallFunction */";
};
width = 547;
}
);
note = S;
unicode = 115;
},
{
glyphname = Sacute.001;
kernLeft = S;
kernRight = S;
lastChange = "2026-01-31 11:59:26 +0000";
layers = (
{
layerId = m01;
shapes = (
{
closed = 1;
nodes = (
(205,746,l),
(453,838,l),
(453,876,l),
(205,783,l)
);
},
{
closed = 1;
nodes = (
(273,443,o),
(251,451,o),
(199,475,o),
(179,494,o),
(159,526,o),
(159,545,qs),
(159,552,ls),
(163,604,o),
(252,673,o),
(310,673,qs),
(424,673,o),
(496,601,q),
(500,640,l),
(422,718,o),
(314,718,qs),
(224,718,o),
(85,611,o),
(78,531,qs),
(78,529,o),
(77,520,o),
(77,518,qs),
(77,406,o),
(265,342,qs),
(421,289,o),
(421,203,qs),
(421,194,ls),
(416,132,o),
(319,45,o),
(255,45,qs),
(121,45,o),
(30,118,q),
(27,79,l),
(127,0,o),
(250,0,qs),
(345,0,o),
(494,125,o),
(502,215,qs),
(502,218,o),
(503,228,o),
(503,230,qs),
(503,301,o),
(391,404,o),
(305,432,qs)
);
}
);
userData = {
assembly = "NPUSHB[ ]	/* 46 values pushed */
39 34 25 20 15 6 6 1 3 1 76 3 2 1 0 4 2 74 0 3 3 2 97 0 2 2 16 77 0 1 1 0 97 0 0 0 15 0 78 35 44 35 43 4 7 26
CALL[ ]	/* CallFunction */";
};
width = 547;
}
);
note = Sacute;
unicode = 347;
},
{
glyphname = T.001;
kernLeft = T;
kernRight = T;
lastChange = "2026-01-31 12:02:54 +0000";
layers = (
{
layerId = m01;
shapes = (
{
closed = 1;
nodes = (
(208,654,l),
(150,1,l),
(232,1,l),
(289,654,l),
(490,654,l),
(494,700,l),
(11,700,l),
(7,654,l)
);
}
);
userData = {
assembly = "NPUSHB[ ]	/* 24 values pushed */
3 1 1 1 0 95 0 0 0 14 77 0 2 2 15 2 78 17 17 17 16 4 7 26
CALL[ ]	/* CallFunction */";
};
width = 501;
}
);
note = T;
unicode = 116;
},
{
glyphname = U.001;
kernLeft = U;
kernRight = U;
lastChange = "2026-01-31 12:02:59 +0000";
layers = (
{
layerId = m01;
shapes = (
{
closed = 1;
nodes = (
(466,146,o),
(361,40,o),
(291,40,qs),
(225,40,o),
(139,134,o),
(139,201,qs),
(139,213,o),
(140,219,qs),
(183,700,l),
(101,700,l),
(57,204,ls),
(56,198,o),
(56,186,qs),
(56,104,o),
(180,-5,o),
(269,-5,qs),
(363,-5,o),
(510,116,o),
(518,204,qs),
(562,700,l),
(516,700,l),
(473,219,ls)
);
}
);
userData = {
assembly = "NPUSHB[ ]	/* 30 values pushed */
13 1 3 0 1 76 2 1 0 0 14 77 0 3 3 1 97 0 1 1 17 1 78 37 21 35 16 4 7 26
CALL[ ]	/* CallFunction */";
};
width = 608;
}
);
note = U;
unicode = 117;
},
{
glyphname = V.001;
kernLeft = V;
kernRight = V;
lastChange = "2026-01-31 12:03:05 +0000";
layers = (
{
layerId = m01;
shapes = (
{
closed = 1;
nodes = (
(109,700,l),
(22,700,l),
(197,1,l),
(251,1,l),
(549,700,l),
(500,700,l),
(254,120,l)
);
}
);
userData = {
assembly = "NPUSHB[ ]	/* 24 values pushed */
6 1 1 0 1 76 2 1 0 0 14 77 0 1 1 15 1 78 17 17 16 3 7 25
CALL[ ]	/* CallFunction */";
};
width = 560;
}
);
note = V;
unicode = 118;
},
{
glyphname = W.001;
kernLeft = W;
kernRight = W;
lastChange = "2026-01-31 12:03:10 +0000";
layers = (
{
layerId = m01;
shapes = (
{
closed = 1;
nodes = (
(454,700,l),
(407,700,l),
(214,149,l),
(118,700,l),
(33,700,l),
(155,1,l),
(210,1,l),
(398,539,l),
(492,1,l),
(547,1,l),
(791,700,l),
(743,700,l),
(551,149,l)
);
}
);
userData = {
assembly = "NPUSHB[ ]	/* 30 values pushed */
12 9 4 3 1 0 1 76 4 3 2 0 0 14 77 2 1 1 1 15 1 78 18 17 18 17 16 5 7 27
CALL[ ]	/* CallFunction */";
};
width = 807;
}
);
note = W;
unicode = 119;
},
{
glyphname = X.001;
kernLeft = X;
kernRight = X;
lastChange = "2026-01-31 12:03:15 +0000";
layers = (
{
layerId = m01;
shapes = (
{
closed = 1;
nodes = (
(317,429,l),
(187,700,l),
(93,700,l),
(259,357,l),
(8,1,l),
(62,1,l),
(281,312,l),
(430,1,l),
(524,1,l),
(339,384,l),
(561,700,l),
(507,700,l)
);
}
);
userData = {
assembly = "NPUSHB[ ]	/* 35 values pushed */
10 7 4 1 4 0 2 1 76 4 3 2 2 2 14 77 1 1 0 0 15 0 78 0 0 0 11 0 11 18 18 18 5 7 25
CALL[ ]	/* CallFunction */";
};
width = 574;
}
);
note = X;
unicode = 120;
},
{
glyphname = Y.001;
kernLeft = Y;
kernRight = Y;
lastChange = "2026-01-31 12:03:19 +0000";
layers = (
{
layerId = m01;
shapes = (
{
closed = 1;
nodes = (
(103,700,l),
(13,700,l),
(177,281,l),
(152,1,l),
(234,1,l),
(262,321,l),
(496,700,l),
(444,700,l),
(231,355,l)
);
}
);
userData = {
assembly = "NPUSHB[ ]	/* 24 values pushed */
8 1 1 0 1 76 2 1 0 0 14 77 0 1 1 15 1 78 18 18 16 3 7 25
CALL[ ]	/* CallFunction */";
};
width = 502;
}
);
note = Y;
unicode = 121;
},
{
glyphname = Z.001;
kernLeft = Z;
kernRight = Z;
lastChange = "2026-01-31 12:03:33 +0000";
layers = (
{
layerId = m01;
shapes = (
{
closed = 1;
nodes = (
(90,654,l),
(427,654,l),
(21,49,l),
(17,1,l),
(478,1,l),
(482,47,l),
(115,47,l),
(519,649,l),
(523,700,l),
(94,700,l)
);
}
);
userData = {
assembly = "NPUSHB[ ]	/* 34 values pushed */
0 2 2 3 95 4 1 3 3 14 77 0 0 0 1 95 0 1 1 15 1 78 0 0 0 9 0 9 18 17 18 5 7 25
CALL[ ]	/* CallFunction */";
};
width = 544;
}
);
note = Z;
unicode = 122;
},
{
glyphname = Zacute.001;
kernLeft = Z;
kernRight = Z;
lastChange = "2026-01-31 11:59:38 +0000";
layers = (
{
layerId = m01;
shapes = (
{
closed = 1;
nodes = (
(213,741,l),
(461,833,l),
(461,871,l),
(213,778,l)
);
},
{
closed = 1;
nodes = (
(90,654,l),
(427,654,l),
(21,49,l),
(17,1,l),
(478,1,l),
(482,47,l),
(115,47,l),
(519,649,l),
(523,700,l),
(94,700,l)
);
}
);
userData = {
assembly = "NPUSHB[ ]	/* 41 values pushed */
3 2 1 0 4 3 74 0 2 2 3 95 4 1 3 3 14 77 0 0 0 1 95 0 1 1 15 1 78 4 4 4 13 4 13 18 17 22 5 7 25
CALL[ ]	/* CallFunction */";
};
width = 544;
}
);
note = Zacute;
unicode = 378;
},
{
glyphname = Zdot.001;
kernLeft = Zdot;
kernRight = Zdot;
lastChange = "2026-01-31 11:59:54 +0000";
layers = (
{
layerId = m01;
shapes = (
{
closed = 1;
nodes = (
(99,654,l),
(436,654,l),
(265,398,l),
(85,398,l),
(85,361,l),
(240,361,l),
(30,49,l),
(26,1,l),
(487,1,l),
(491,47,l),
(124,47,l),
(334,361,l),
(508,361,l),
(508,398,l),
(360,398,l),
(528,649,l),
(532,700,l),
(103,700,l)
);
}
